<?xml version="1.0" encoding="iso-8859-1"?>
<!-- Generator: Adobe Illustrator 19.0.0, SVG Export Plug-In . SVG Version: 6.00 Build 0)  -->
<svg version="1.1" id="Capa_1" xmlns="http://www.w3.org/2000/svg" xmlns:xlink="http://www.w3.org/1999/xlink" x="0px" y="0px"
	 viewBox="0 0 512.001 512.001" style="enable-background:new 0 0 512.001 512.001;" xml:space="preserve">
<path style="fill:#AF5042;" d="M338.835,413.003h86.125c21.767-103.383,21.766-210.623,0-314.007h-86.125"/>
<g>
	<polygon style="fill:#CF5530;" points="182.572,57.747 193.65,10 107.524,10 96.447,57.747 	"/>
	<path style="fill:#CF5530;" d="M173.165,98.997H87.04c-21.766,103.383-21.767,210.623,0,314.007h86.125"/>
	<polygon style="fill:#CF5530;" points="96.447,454.253 107.524,502 193.65,502 182.572,454.253 	"/>
</g>
<g>
	<path style="fill:#EDC183;" d="M256,98.997h-82.835c-21.766,103.383-21.767,210.623,0,314.007H256V98.997z"/>
	<polygon style="fill:#EDC183;" points="256,57.747 256,10 193.65,10 182.572,57.747 	"/>
	<polygon style="fill:#EDC183;" points="182.572,454.253 193.65,502 256,502 256,454.253 	"/>
</g>
<g>
	<path style="fill:#C9774E;" d="M256,413.003h82.835c21.767-103.383,21.766-210.623,0-314.007H256V413.003z"/>
	<polygon style="fill:#C9774E;" points="329.428,57.747 318.35,10 256,10 256,57.747 	"/>
	<polygon style="fill:#C9774E;" points="256,454.253 256,502 318.35,502 329.428,454.253 	"/>
</g>
<g>
	<polygon style="fill:#AF5042;" points="415.553,57.747 404.477,10 318.35,10 329.428,57.747 	"/>
	<polygon style="fill:#AF5042;" points="329.428,454.253 318.35,502 404.477,502 415.553,454.253 	"/>
</g>
<path d="M206.42,166.62c-2.63,0-5.21-1.07-7.07-2.93c-0.46-0.46-0.88-0.97-1.24-1.52c-0.36-0.54-0.67-1.12-0.92-1.73
	c-0.25-0.6-0.45-1.23-0.57-1.87c-0.13-0.64-0.2-1.3-0.2-1.95s0.07-1.31,0.2-1.96c0.12-0.63,0.32-1.26,0.57-1.87
	c0.25-0.6,0.56-1.18,0.92-1.72c0.36-0.55,0.78-1.06,1.24-1.52s0.97-0.88,1.52-1.25c0.54-0.36,1.12-0.67,1.72-0.92
	c0.61-0.25,1.24-0.44,1.88-0.57c1.28-0.26,2.61-0.26,3.9,0c0.64,0.13,1.27,0.32,1.87,0.57c0.61,0.25,1.19,0.56,1.73,0.92
	c0.55,0.37,1.06,0.79,1.52,1.25s0.88,0.97,1.24,1.52c0.37,0.54,0.67,1.12,0.92,1.72c0.25,0.61,0.45,1.24,0.58,1.87
	c0.12,0.65,0.19,1.31,0.19,1.96c0,0.65-0.07,1.31-0.19,1.95c-0.13,0.64-0.33,1.27-0.58,1.87c-0.25,0.61-0.55,1.19-0.92,1.73
	c-0.36,0.55-0.78,1.06-1.24,1.52s-0.97,0.88-1.52,1.24c-0.54,0.36-1.12,0.67-1.73,0.92c-0.6,0.25-1.23,0.44-1.87,0.57
	C207.73,166.55,207.07,166.62,206.42,166.62z"/>
<path d="M305.58,365.38c-0.65,0-1.31-0.06-1.95-0.19s-1.27-0.32-1.87-0.57c-0.61-0.25-1.19-0.56-1.73-0.92
	c-0.55-0.37-1.06-0.79-1.52-1.25s-0.88-0.97-1.24-1.52c-0.36-0.54-0.67-1.12-0.92-1.72c-0.25-0.61-0.45-1.24-0.57-1.88
	c-0.13-0.64-0.2-1.3-0.2-1.95s0.07-1.31,0.2-1.95c0.12-0.64,0.32-1.27,0.57-1.87c0.25-0.61,0.56-1.19,0.92-1.73
	c0.36-0.55,0.78-1.06,1.24-1.52c2.32-2.32,5.77-3.39,9.02-2.73c0.64,0.13,1.27,0.32,1.87,0.57c0.61,0.25,1.19,0.56,1.73,0.92
	c0.55,0.36,1.06,0.78,1.52,1.24s0.88,0.97,1.24,1.52c0.36,0.54,0.67,1.12,0.92,1.73c0.25,0.6,0.45,1.23,0.57,1.87
	c0.13,0.64,0.2,1.3,0.2,1.95s-0.07,1.31-0.2,1.95c-0.12,0.64-0.32,1.27-0.57,1.88c-0.25,0.6-0.56,1.18-0.92,1.72
	c-0.36,0.55-0.78,1.06-1.24,1.52s-0.97,0.88-1.52,1.25c-0.54,0.36-1.12,0.67-1.73,0.92c-0.6,0.25-1.23,0.44-1.87,0.57
	S306.23,365.38,305.58,365.38z"/>
<g>
	<polygon style="fill:#8A6F64;" points="423.581,454.253 88.419,454.253 78.287,413.003 433.714,413.003 	"/>
	<polygon style="fill:#8A6F64;" points="433.714,98.997 78.287,98.997 88.419,57.747 423.581,57.747 	"/>
</g>
<path d="M437.07,403.584c9.435-48.488,14.215-98.077,14.215-147.584s-4.78-99.096-14.215-147.584
	c1.76-0.627,3.331-1.743,4.513-3.249c1.896-2.417,2.575-5.572,1.842-8.556l-10.132-41.25c-1.098-4.471-5.107-7.615-9.711-7.615
	h-0.082L414.217,7.74C413.166,3.208,409.128,0,404.477,0H107.524c-4.652,0-8.69,3.208-9.741,7.74l-9.282,40.007h-0.082
	c-4.604,0-8.613,3.144-9.711,7.615l-10.132,41.25c-0.733,2.983-0.054,6.138,1.842,8.556c1.181,1.506,2.753,2.622,4.513,3.249
	C65.495,156.904,60.715,206.493,60.715,256s4.78,99.096,14.215,147.584c-1.76,0.627-3.331,1.743-4.513,3.249
	c-1.896,2.417-2.575,5.572-1.842,8.556l10.132,41.25c1.098,4.471,5.107,7.615,9.711,7.615H88.5l9.282,40.007
	c1.051,4.532,5.089,7.74,9.741,7.74h296.951c4.652,0,8.69-3.208,9.741-7.74l9.282-40.007h0.082c4.604,0,8.613-3.144,9.711-7.615
	l10.132-41.25c0.733-2.983,0.054-6.138-1.842-8.556C440.402,405.327,438.83,404.211,437.07,403.584z M96.26,444.253l-5.22-21.25
	h329.92l-5.22,21.25H96.26z M246,492h-44.405l-6.438-27.747H246V492z M95.199,108.997h65.743
	C151.581,157.3,146.84,206.691,146.84,256s4.741,98.7,14.102,147.003H95.199C76.025,306.644,76.025,205.356,95.199,108.997z
	 M415.74,67.747l5.22,21.25H91.04l5.22-21.25H415.74z M266,20h44.405l6.438,27.747H266V20z M330.675,403.003H266V108.997h29.58
	v202.821c0,5.523,4.477,10,10,10s10-4.477,10-10V108.997h15.095C349.85,205.356,349.85,306.644,330.675,403.003z M216.42,403.003
	V200.182c0-5.523-4.477-10-10-10s-10,4.477-10,10v202.821h-15.095c-19.175-96.36-19.175-197.647,0-294.007H246v294.007H216.42z
	 M351.059,403.003C360.419,354.7,365.16,305.309,365.16,256s-4.741-98.7-14.102-147.003h65.743
	c19.174,96.36,19.174,197.647,0,294.007L351.059,403.003L351.059,403.003z M402.968,47.747h-65.594L330.936,20h65.594
	L402.968,47.747z M246,47.747h-50.843L201.595,20H246V47.747z M115.47,20h65.594l-6.438,27.747h-65.594L115.47,20z M109.032,464.253
	h65.594L181.064,492H115.47L109.032,464.253z M266,464.253h50.843L310.405,492H266V464.253z M396.53,492h-65.594l6.438-27.747
	h65.594L396.53,492z"/>
<g>
</g>
<g>
</g>
<g>
</g>
<g>
</g>
<g>
</g>
<g>
</g>
<g>
</g>
<g>
</g>
<g>
</g>
<g>
</g>
<g>
</g>
<g>
</g>
<g>
</g>
<g>
</g>
<g>
</g>
</svg>
