<svg height="512" viewBox="0 0 512 512" width="512" xmlns="http://www.w3.org/2000/svg"><g id="filled_outline" data-name="filled outline"><path d="m336 24h52a12 12 0 0 1 12 12v212a0 0 0 0 1 0 0h-64a0 0 0 0 1 0 0v-224a0 0 0 0 1 0 0z" fill="#5f4623"/><path d="m156 24h200a12 12 0 0 1 12 12v404a0 0 0 0 1 0 0h-224a0 0 0 0 1 0 0v-404a12 12 0 0 1 12-12z" fill="#715329"/><path d="m400 248v192 48l-16-8-16 8-16-8-16 8-16-8-16 8-16-8-16 8-16-8-16 8-16-8-16 8-16-8-16 8-16-8-16 8v-240z" fill="#b9b9b9"/><path d="m144 248h224v192h-224z" fill="#ea9d2d"/><path d="m336 312a32 32 0 0 1 -32-32 32 32 0 0 1 32-32h-208a32 32 0 0 0 -32 32 32 32 0 0 0 32 32z" fill="#fbb540"/><g fill="#8f6934"><path d="m176 56h64v64h-64z"/><path d="m272 56h64v64h-64z"/><path d="m176 152h64v64h-64z"/><path d="m272 152h64v64h-64z"/></g><path d="m368 248h32v192h-32z" fill="#d32b39"/><path d="m368 344-224 56v40h224z" fill="#e82f3e"/><circle cx="256" cy="376" fill="#d18d28" r="32"/><path d="m156 24a12 12 0 0 0 -12 12v59.46c0 13.455 11.011 24.791 24.464 24.536a24 24 0 0 0 23.536-23.996v-24a16 16 0 0 1 16-16h.919c8.557 0 15.081 6.994 15.081 15.551 0 8.614 6.622 16.026 15.227 16.431a16 16 0 0 0 16.773-15.982 16 16 0 0 1 16-16 16 16 0 0 0 16-16v-16z" fill="#5f4623"/><path d="m240 144h-64a8 8 0 0 0 -8 8v64a8 8 0 0 0 8 8h64a8 8 0 0 0 8-8v-64a8 8 0 0 0 -8-8zm-8 64h-48v-48h48z"/><path d="m344 216v-64a8 8 0 0 0 -8-8h-64a8 8 0 0 0 -8 8v64a8 8 0 0 0 8 8h64a8 8 0 0 0 8-8zm-16-8h-48v-48h48z"/><path d="m136 488a8 8 0 0 0 11.578 7.155l12.422-6.211 12.422 6.211a8 8 0 0 0 7.156 0l12.422-6.211 12.422 6.211a8 8 0 0 0 7.156 0l12.422-6.211 12.422 6.211a8 8 0 0 0 7.156 0l12.422-6.211 12.422 6.211a8 8 0 0 0 7.156 0l12.422-6.211 12.422 6.211a8 8 0 0 0 7.156 0l12.422-6.211 12.422 6.211a8 8 0 0 0 7.156 0l12.422-6.211 12.422 6.211a8 8 0 0 0 7.156 0l12.422-6.211 12.422 6.211a8 8 0 0 0 11.578-7.155v-452a20.023 20.023 0 0 0 -20-20h-232a20.023 20.023 0 0 0 -20 20v204h-8a40 40 0 0 0 0 80h8zm256-56h-16v-176h16zm-4-400a4 4 0 0 1 4 4v204h-16v-204a20.047 20.047 0 0 0 -.4-4zm4 416v27.056l-4.422-2.211a8 8 0 0 0 -7.156 0l-12.422 6.211-12.422-6.211a8 8 0 0 0 -7.156 0l-12.422 6.211-12.422-6.211a8 8 0 0 0 -7.156 0l-12.422 6.211-12.422-6.211a8 8 0 0 0 -7.156 0l-12.422 6.211-12.422-6.211a8 8 0 0 0 -7.156 0l-12.422 6.211-12.422-6.211a8 8 0 0 0 -7.156 0l-12.422 6.211-12.422-6.211a8 8 0 0 0 -7.156 0l-12.422 6.211-12.422-6.211a8 8 0 0 0 -7.156 0l-4.422 2.211v-27.056zm-56-144a24 24 0 0 1 0-48h24v81.754l-69.838 17.46a39.989 39.989 0 0 0 -74.094 18.523l-64.068 16.017v-69.754h184a8 8 0 0 0 0-16zm-56 72a24 24 0 1 1 -24-24 24.027 24.027 0 0 1 24 24zm-61.6 13.646a39.993 39.993 0 0 0 77.193-19.3l64.407-16.1v77.754h-208v-25.754zm-66.4-353.646a4 4 0 0 1 4-4h124v8a8.009 8.009 0 0 1 -8 8 24.027 24.027 0 0 0 -24 24 7.984 7.984 0 0 1 -7.828 7.99c-.057 0-.114-.009-.172-.009s-.123.009-.186.01-.14 0-.211 0a8.328 8.328 0 0 1 -7.603-8.441c0-13.206-10.141-23.55-23.081-23.55h-.919a24.027 24.027 0 0 0 -24 24v24a16.078 16.078 0 0 1 -15.687 16 15.566 15.566 0 0 1 -11.258-4.574 16.876 16.876 0 0 1 -5.055-11.966zm176 28v48h-48v-48zm-96 30.623v17.377h-36.348a31.654 31.654 0 0 0 4.348-16v-24a8.009 8.009 0 0 1 8-8h.919c4.036 0 7.08 3.247 7.081 7.552a24.391 24.391 0 0 0 16 23.071zm-80 28.97a31.18 31.18 0 0 0 16.014 4.407h71.986a8 8 0 0 0 8-8v-25.361a24.04 24.04 0 0 0 16-22.639v48a8 8 0 0 0 8 8h64a8 8 0 0 0 8-8v-64a8 8 0 0 0 -8-8h-41.376a23.889 23.889 0 0 0 1.376-8v-8h60a4 4 0 0 1 4 4v204h-208zm-24 180.407a24 24 0 0 1 0-48h176.019a39.924 39.924 0 0 0 0 48z"/></g></svg>