<svg height="512" viewBox="0 0 512 512" width="512" xmlns="http://www.w3.org/2000/svg"><g id="FilledOutline"><path d="m124.922 353.137a40 40 0 0 0 -56.569 0l32.1 24.077a15.973 15.973 0 0 0 -15.132 4.207 16 16 0 0 0 0 22.628l11.313 11.314a16 16 0 0 0 22.628 0l5.657-5.657a40 40 0 0 0 .003-56.569z" fill="#d18b29"/><path d="m139.22 324.914 17.452 18.041-43.064 44.123-5.657-5.657a16 16 0 0 0 -22.627 0z" fill="#ecaf4a"/><path d="m68.353 353.137a40 40 0 0 1 56.569 0 40 40 0 0 1 0 56.569l-5.657 5.657 5.657-5.657 277.086-277.087a40 40 0 0 0 0-56.568 40 40 0 0 0 -56.568 0z" fill="#a3783b"/><path d="m181.49 409.706a40 40 0 0 0 -56.568 0l32.1 24.077a15.975 15.975 0 0 0 -15.133 4.207 16 16 0 0 0 0 22.627l11.314 11.314a16 16 0 0 0 22.627 0l5.657-5.657a40 40 0 0 0 .003-56.568z" fill="#d18b29"/><path d="m195.788 381.482 17.453 18.041-43.064 44.124-5.657-5.657a16 16 0 0 0 -22.628 0z" fill="#ecaf4a"/><path d="m124.922 409.706a40 40 0 0 1 56.568 0 40 40 0 0 1 0 56.568l-5.657 5.657 5.657-5.657 277.186-276.961a40 40 0 0 0 0-56.569 40 40 0 0 0 -56.568 0z" fill="#80582e"/><path d="m232.4 302.225a40 40 0 0 0 -56.569 0l32.1 24.077a15.976 15.976 0 0 0 -15.131 4.208 16 16 0 0 0 0 22.627l11.314 11.314a16 16 0 0 0 22.627 0l5.657-5.657a40 40 0 0 0 .002-56.569z" fill="#d18b29"/><path d="m246.7 274 17.452 18.041-43.064 44.124-5.657-5.657a16 16 0 0 0 -22.627 0z" fill="#ecaf4a"/><path d="m175.834 302.225a40 40 0 0 1 56.568 0 40 40 0 0 1 0 56.569l-5.657 5.657 5.657-5.657 226.274-226.274a40 40 0 0 0 0-56.569 40 40 0 0 0 -56.568 0z" fill="#8c6439"/><path d="m477.912 154.02-15.84 2.251a31.763 31.763 0 0 1 -9.053 27.16l-88.677 88.677a88.293 88.293 0 0 0 -1.539-37.449 35.99 35.99 0 0 0 36.476-59.712 35.761 35.761 0 0 0 -25.456-10.547 36.422 36.422 0 0 0 -3.821.2 35.985 35.985 0 1 0 -70.032 7.219 88.28 88.28 0 0 0 -37.452-1.538l88.682-88.673a31.743 31.743 0 0 1 27.16-9.051l2.252-15.841a47.619 47.619 0 0 0 -40.726 13.578l-277.186 277.185a8 8 0 0 0 11.315 11.315 32 32 0 0 1 45.274 45.234l-.02.021-5.658 5.657a8 8 0 0 1 -11.312 0l-11.319-11.314a8 8 0 0 1 11.314-11.314l5.657 5.657 11.315-11.314-5.658-5.657a24 24 0 0 0 -33.941 33.942l11.313 11.313a24 24 0 0 0 33.941 0l5.658-5.657a32 32 0 0 1 45.275 45.238l-.021.02-5.657 5.656a8 8 0 0 1 -11.313 0l-11.314-11.316a8 8 0 0 1 11.314-11.313l5.658 5.657 11.312-11.315-5.656-5.655a24 24 0 1 0 -33.942 33.94l11.314 11.313a24 24 0 0 0 33.94 0l5.658-5.656 277.185-277.186a47.624 47.624 0 0 0 13.58-40.725zm-104.089 26.38a19.867 19.867 0 0 1 14.142 5.859 20 20 0 0 1 -28.283 28.283l-14.143-14.142 14.143-14.143a19.865 19.865 0 0 1 14.141-5.857zm-53.739-33.739a20 20 0 0 1 28.283 28.284l-14.142 14.142-14.141-14.141a20.024 20.024 0 0 1 0-28.284zm-132.937 257.388a47.644 47.644 0 0 0 -31.273-13.98l19.96-19.961-11.314-11.314-19.961 19.96a47.994 47.994 0 0 0 -45.248-45.261l127.435-127.433a72 72 0 0 1 101.833 101.81l-127.451 127.452a47.645 47.645 0 0 0 -13.981-31.273z"/><path d="m368.167 121.206 39.6-39.6a32 32 0 0 1 45.254 45.254l-39.6 39.6 11.314 11.314 39.6-39.6a48 48 0 0 0 -67.885-67.88l-39.6 39.6z"/><path d="m339.883 262.628-11.315-11.315-76.551 76.552a47.946 47.946 0 0 0 -45.226-45.283l76.523-76.522-11.314-11.315-101.823 101.823a8 8 0 0 0 11.314 11.314 32 32 0 0 1 45.254 45.255l-5.657 5.657a8 8 0 0 1 -11.313 0l-11.314-11.315a8 8 0 1 1 11.313-11.313l5.657 5.657 11.314-11.312-5.657-5.658a24 24 0 1 0 -33.942 33.941l11.315 11.314a24.028 24.028 0 0 0 33.941 0l5.658-5.657z"/><path d="m66.177 198.058h208v16.001h-208z" transform="matrix(.707 -.707 .707 .707 -95.862 180.686)"/><path d="m252.686 107.549h16v16.001h-16z" transform="matrix(.707 -.707 .707 .707 -5.353 218.176)"/></g></svg>