<svg height="384pt" viewBox="0 0 384.01378 384" width="384pt" xmlns="http://www.w3.org/2000/svg"><path d="m308.035156 75.949219c-84.46875-84.46875-204.902344-100.992188-268.992187-36.902344-64.09375 64.089844-47.570313 184.523437 36.898437 268.996094 84.472656 84.472656 204.90625 100.992187 268.996094 36.902343 64.089844-64.089843 47.570312-184.523437-36.902344-268.996093zm0 0" fill="#953c1c"/><path d="m243.832031 383.996094c-57.5625 0-120.320312-28.394532-167.882812-75.957032-8.324219-8.332031-8.320313-21.832031.007812-30.160156 8.324219-8.328125 21.824219-8.332031 30.15625-.007812 39.742188 39.738281 91.21875 63.457031 137.71875 63.457031 29.03125 0 53.5625-9.175781 70.9375-26.550781 21.335938-21.332032 30.273438-53.613282 25.15625-90.894532-1.605469-11.675781 6.5625-22.445312 18.238281-24.042968 11.679688-1.601563 22.441407 6.570312 24.035157 18.25 6.96875 50.800781-6.261719 95.855468-37.261719 126.855468-25.542969 25.550782-60.511719 39.050782-101.105469 39.050782zm0 0" fill="#7d2b00"/><path d="m242.328125 70.15625c-35.085937-10.421875-66.96875-7.300781-71.207031 6.972656-4.238282 14.269532 20.773437 34.285156 55.859375 44.707032 35.089843 10.421874 66.972656 7.300781 71.210937-6.972657 4.238282-14.269531-20.773437-34.285156-55.863281-44.707031zm0 0" fill="#b77b65"/><path d="m143.15625 48.851562c-8.285156-8.296874-21.792969-8.238281-30.167969.125-8.375 8.367188-8.449219 21.871094-.164062 30.167969 8.285156 8.292969 21.789062 8.234375 30.164062-.128906 8.378907-8.363281 8.449219-21.871094.167969-30.164063zm0 0" fill="#b77b65"/><path d="m298.65625 319.996094c-35.332031-.039063-63.960938-28.667969-64-64-.015625-11.777344-9.558594-21.316406-21.332031-21.332032-35.332031-.039062-63.960938-28.671874-64-64-.015625-11.777343-9.558594-21.320312-21.335938-21.335937-35.328125-.035156-63.960937-28.667969-64-64 0-11.78125 9.550781-21.332031 21.335938-21.332031 11.78125 0 21.332031 9.550781 21.332031 21.332031.015625 11.777344 9.558594 21.320313 21.332031 21.335937 35.332031.039063 63.960938 28.667969 64 64 .015625 11.773438 9.558594 21.316407 21.335938 21.332032 35.328125.039062 63.960937 28.671875 64 64 .015625 11.777344 9.554687 21.316406 21.332031 21.332031 11.78125 0 21.332031 9.554687 21.332031 21.335937s-9.550781 21.332032-21.332031 21.332032zm0 0" fill="#3e190c"/></svg>