<svg height="512pt" viewBox="0 0 512.00056 512" width="512pt" xmlns="http://www.w3.org/2000/svg"><path d="m161.382812 48.472656-143.011718 82.566406 116.082031 170.660157c8.597656 12.640625 23.84375 19.015625 38.882813 16.265625 30.375-5.558594 58.683593-18.585938 82.496093-37.667969 5.679688-10.714844 6.070313-23.667969.65625-34.878906zm0 0" fill="#ffb954"/><path d="m10.972656 124.527344c14.363282 9.542968 57.554688-1.738282 102.546875-27.714844 34.535157-19.9375 61.035157-43.28125 71.003907-60.84375-14.363282-9.539062-57.554688 1.742188-102.546876 27.71875-34.535156 19.9375-61.035156 43.28125-71.003906 60.839844zm0 0" fill="#ffefd5"/><path d="m357.363281 221.539062-92.839843 192.242188c-6.648438 13.765625-4.546876 30.15625 5.355468 41.804688 14.203125 16.707031 31.148438 30.621093 49.960938 41.257812 6.175781 1.8125 12.460937 3.3125 18.839844 4.480469 15.039062 2.753906 30.28125-3.625 38.882812-16.265625l123.003906-180.839844zm0 0" fill="#ffc66c"/><path d="m442.042969 249.714844c-49.6875-28.6875-97.179688-39.453125-106.074219-24.046875-1.40625 2.4375-1.761719 5.386719-1.167969 8.734375 13.332031 14.667968 34.351563 31.136718 59.695313 45.769531 49.6875 28.6875 97.179687 39.453125 106.074218 24.046875 1.40625-2.4375 1.761719-5.386719 1.167969-8.734375-13.335937-14.667969-34.351562-31.136719-59.695312-45.769531zm0 0" fill="#feda9b"/><path d="m322.125 444.882812-8.910156-4.75c-4.875-2.601562-10.929688-.753906-13.53125 4.117188-2.597656 4.875-.753906 10.933594 4.121094 13.53125l8.910156 4.75c1.5.800781 3.109375 1.179688 4.699218 1.179688 3.574219 0 7.03125-1.921876 8.832032-5.296876 2.597656-4.875.753906-10.933593-4.121094-13.53125zm0 0"/><path d="m371.445312 431.113281-9.523437-5.371093c-4.808594-2.710938-10.910156-1.011719-13.621094 3.800781-2.714843 4.808593-1.011719 10.910156 3.796875 13.621093l9.523438 5.371094c1.550781.875 3.238281 1.292969 4.902344 1.292969 3.492187 0 6.882812-1.832031 8.71875-5.089844 2.710937-4.8125 1.011718-10.914062-3.796876-13.625zm0 0"/><path d="m358.632812 321.882812c1.664063 1.0625 3.527344 1.570313 5.367188 1.570313 3.300781 0 6.53125-1.632813 8.441406-4.621094 2.96875-4.65625 1.601563-10.839843-3.050781-13.8125l-10.742187-6.851562c-4.65625-2.972657-10.839844-1.605469-13.808594 3.050781-2.972656 4.65625-1.605469 10.835938 3.050781 13.808594zm0 0"/><path d="m439.007812 335.425781-10.761718-5.78125c-4.867188-2.613281-10.929688-.789062-13.542969 4.074219-2.613281 4.867188-.789063 10.929688 4.074219 13.542969l10.765625 5.785156c1.507812.808594 3.125 1.191406 4.722656 1.191406 3.566406 0 7.015625-1.910156 8.820313-5.269531 2.613281-4.863281.789062-10.929688-4.078126-13.542969zm0 0"/><path d="m312.957031 340.582031c3.640625 0 7.152344-1.996093 8.917969-5.460937 2.507812-4.917969.550781-10.941406-4.367188-13.449219l-10.277343-5.242187c-4.921875-2.507813-10.945313-.550782-13.453125 4.367187-2.507813 4.921875-.550782 10.941406 4.367187 13.453125l10.277344 5.238281c1.457031.742188 3.007813 1.09375 4.535156 1.09375zm0 0"/><path d="m492.949219 262.488281c-14.613281-15.796875-36.363281-32.40625-61.242188-46.769531-24.875-14.363281-50.136719-24.890625-71.121093-29.648438-31.625-7.167968-43.886719 1.082032-48.609376 9.265626-.40625.695312-.777343 1.445312-1.113281 2.238281l-11.453125 23.71875c-.789062-4.003907-2.089844-7.941407-3.914062-11.722657l-94.28125-195.226562c-.335938-.804688-.726563-1.597656-1.171875-2.371094-14.503907-25.117187-72.234375-7.039062-119.734375 20.386719-47.503906 27.425781-92.023438 68.382813-77.523438 93.5.125.214844.265625.410156.394532.621094l.078124.117187c.257813.40625.527344.804688.808594 1.191406l46.726563 68.695313c1.9375 2.84375 5.078125 4.375 8.277343 4.375 1.9375 0 3.894532-.558594 5.617188-1.730469 4.566406-3.105468 5.75-9.324218 2.644531-13.894531l-32.371093-47.589844c24.585937-1.707031 58.050781-15.132812 87.558593-32.171875 29.515625-17.039062 57.875-39.300781 71.644531-59.746094l83.320313 172.542969c4.925781 10.191407 3.367187 22.355469-3.964844 30.980469-26.109375 30.710938-62.328125 51.621094-101.984375 58.878906-11.136718 2.035156-22.441406-2.695312-28.8125-12.054687l-31.117187-45.746094c-3.105469-4.570313-9.328125-5.753906-13.890625-2.648437-4.566406 3.109374-5.753906 9.328124-2.644532 13.894531l31.113282 45.746093c9.148437 13.453126 24.304687 21.277344 40.207031 21.273438 2.898437 0 5.828125-.257812 8.742187-.792969 35.644532-6.523437 68.792969-22.953125 95.550782-47.027343l-54.164063 112.160156c-8.363281 17.316406-5.71875 37.976562 6.738281 52.628906 29.09375 34.21875 69.441407 57.515625 113.621094 65.597656 2.921875.535156 5.847656.796875 8.746094.796875 15.902344 0 31.058594-7.824219 40.203125-21.273437l122.046875-179.421875c.503906-.675781.960938-1.359375 1.351562-2.042969 4.726563-8.183594 5.738282-22.933594-16.277343-46.730469zm-323.871094-217.367187c-13.285156 14.363281-33.375 29.644531-56.558594 43.03125-23.1875 13.382812-46.460937 23.136718-65.542969 27.464844-18.613281 4.21875-25.578124 1.449218-26.722656.40625l-.195312-.285157c-.398438-1.277343.445312-8.710937 13.691406-23.03125 13.285156-14.359375 33.371094-29.640625 56.558594-43.027343 23.1875-13.386719 46.460937-23.140626 65.542968-27.464844 19.023438-4.3125 25.882813-1.324219 26.789063-.34375l.152344.316406c.328125 1.511719-.757813 8.929688-13.714844 22.933594zm169.867187 158.1875c4.101563 0 9.710938.566406 17.21875 2.265625 19.082032 4.328125 42.359376 14.082031 65.542969 27.464843 23.1875 13.386719 43.273438 28.667969 56.558594 43.03125 13.246094 14.316407 14.089844 21.75 13.691406 23.03125l-.195312.285157c-1.144531 1.042969-8.113281 3.8125-26.722657-.40625-19.082031-4.328125-42.359374-14.082031-65.542968-27.46875-23.1875-13.382813-43.273438-28.667969-56.558594-43.027344-12.957031-14.007813-14.042969-21.425781-13.714844-22.9375l.152344-.316406c.550781-.59375 3.28125-1.921875 9.570312-1.921875zm30.347657 276.125c-6.367188 9.359375-17.675781 14.089844-28.8125 12.054687-39.652344-7.257812-75.871094-28.167969-101.980469-58.878906-7.335938-8.625-8.890625-20.785156-3.96875-30.980469l83.308594-172.511718c2.691406 3.984374 6.105468 8.289062 10.414062 12.949218 14.613282 15.796875 36.363282 32.40625 61.238282 46.769532 24.878906 14.359374 50.136718 24.890624 71.125 29.648437 6.1875 1.402344 11.625 2.210937 16.417968 2.546875zm0 0"/><path d="m185.804688 275.113281c1.808593 3.339844 5.246093 5.234375 8.796874 5.234375 1.609376 0 3.242188-.390625 4.757813-1.210937l12.414063-6.726563c4.855468-2.632812 6.65625-8.703125 4.023437-13.558594-2.628906-4.855468-8.699219-6.65625-13.554687-4.027343l-12.414063 6.730469c-4.855469 2.632812-6.65625 8.703124-4.023437 13.558593zm0 0"/><path d="m147.640625 243.636719-7.191406 4.1875c-4.769531 2.777343-6.386719 8.898437-3.605469 13.671875 1.855469 3.191406 5.207031 4.96875 8.648438 4.96875 1.710937 0 3.441406-.4375 5.023437-1.359375l7.191406-4.1875c4.769531-2.78125 6.386719-8.902344 3.605469-13.675781-2.777344-4.769532-8.898438-6.386719-13.671875-3.605469zm0 0"/><path d="m213.042969 224.273438c1.855469 3.1875 5.207031 4.96875 8.648437 4.96875 1.710938 0 3.441406-.4375 5.023438-1.363282l7.1875-4.1875c4.773437-2.777344 6.390625-8.902344 3.609375-13.671875-2.78125-4.773437-8.902344-6.390625-13.675781-3.609375l-7.1875 4.1875c-4.769532 2.78125-6.386719 8.902344-3.605469 13.675782zm0 0"/><path d="m170.660156 127.195312c4.554688-3.125 5.714844-9.347656 2.59375-13.902343-3.121094-4.554688-9.347656-5.714844-13.902344-2.59375l-6.257812 4.289062c-4.558594 3.125-5.71875 9.347657-2.59375 13.902344 1.9375 2.828125 5.066406 4.347656 8.253906 4.347656 1.949219 0 3.917969-.566406 5.648438-1.75zm0 0"/><path d="m81.195312 169.574219c1.175782 0 2.371094-.210938 3.535157-.652344l9.8125-3.707031c5.164062-1.953125 7.769531-7.726563 5.816406-12.890625-1.953125-5.164063-7.722656-7.769531-12.894531-5.816407l-9.808594 3.707032c-5.167969 1.953125-7.769531 7.726562-5.816406 12.890625 1.511718 4 5.316406 6.46875 9.355468 6.46875zm0 0"/><path d="m134.046875 175.253906-9.808594 5.574219c-4.804687 2.726563-6.484375 8.832031-3.757812 13.636719 1.84375 3.242187 5.222656 5.058594 8.703125 5.058594 1.675781 0 3.371094-.417969 4.933594-1.304688l9.808593-5.574219c4.804688-2.730469 6.484375-8.832031 3.757813-13.636719-2.730469-4.800781-8.835938-6.480468-13.636719-3.753906zm0 0"/><path d="m203.332031 133.972656-12.492187 9.363282c-4.421875 3.3125-5.320313 9.578124-2.007813 14 1.964844 2.621093 4.96875 4.003906 8.011719 4.003906 2.085938 0 4.1875-.652344 5.984375-1.996094l12.496094-9.363281c4.421875-3.3125 5.320312-9.578125 2.007812-13.996094-3.308593-4.421875-9.578125-5.320313-14-2.011719zm0 0"/><path d="m82.902344 215.898438c-2.640625 0-5.210938 1.070312-7.078125 2.929687-1.859375 1.863281-2.921875 4.441406-2.921875 7.070313 0 2.632812 1.0625 5.210937 2.921875 7.070312 1.867187 1.859375 4.4375 2.929688 7.078125 2.929688 2.632812 0 5.203125-1.070313 7.0625-2.929688 1.871094-1.859375 2.9375-4.4375 2.9375-7.070312 0-2.628907-1.066406-5.207032-2.9375-7.070313-1.859375-1.859375-4.429688-2.929687-7.0625-2.929687zm0 0"/></svg>