<?xml version="1.0" encoding="utf-8"?>
<!-- Generator: Adobe Illustrator 17.0.0, SVG Export Plug-In . SVG Version: 6.00 Build 0)  -->
<!DOCTYPE svg PUBLIC "-//W3C//DTD SVG 1.1//EN" "http://www.w3.org/Graphics/SVG/1.1/DTD/svg11.dtd">
<svg version="1.1" id="Layer_1" xmlns="http://www.w3.org/2000/svg" xmlns:xlink="http://www.w3.org/1999/xlink" x="0px" y="0px"
	 width="348.608px" height="483px" viewBox="0.859 0 348.608 483" enable-background="new 0.859 0 348.608 483"
	 xml:space="preserve">
<path fill="#FCFCDE" d="M54.221,362.446c-13.285,0-24.095,13.227-24.095,29.482s10.81,29.482,24.095,29.482h270.137v-58.964H54.221z
	"/>
<path fill="#FFB531" d="M59.874,448.881c-1.224,0-2.44-0.055-3.645-0.136l-4.884,0.008c-25.638,0-46.494-25.518-46.494-56.886
	c0-31.373,20.855-56.89,46.494-56.89h281.493c6.966,0,12.638,6.163,12.638,13.737s-5.672,13.733-12.638,13.733H54.221
	c-13.285,0-24.095,13.227-24.095,29.482c0,16.259,10.81,29.486,24.095,29.486h278.616c6.966,0,12.638,6.159,12.638,13.733
	s-5.672,13.737-12.638,13.737H59.874V448.881z"/>
<path fill="#FAE890" d="M332.837,334.976c1.551,0,3.033,0.32,4.409,0.877c0.066,0.027,0.136,0.051,0.207,0.082
	c0.577,0.249,1.134,0.546,1.668,0.881c0.086,0.055,0.175,0.113,0.261,0.168c0.522,0.347,1.017,0.725,1.489,1.146
	c0.062,0.062,0.125,0.129,0.195,0.191c0.479,0.448,0.936,0.928,1.345,1.45c0.004,0.004,0.004,0.004,0.008,0.008
	c0.409,0.522,0.772,1.08,1.107,1.661c0.047,0.082,0.097,0.164,0.144,0.246c0.312,0.565,0.577,1.154,0.815,1.766
	c0.043,0.117,0.086,0.23,0.129,0.351c0.218,0.62,0.398,1.255,0.534,1.914c0.02,0.101,0.035,0.207,0.055,0.304
	c0.129,0.702,0.222,1.411,0.249,2.144h0.023V14.115c0-5.243-4-9.504-9.106-10.022V3.992H71.81v330.984H332.837z"/>
<path fill="#FFB531" d="M332.837,362.446h-8.479v58.964h8.479c6.818,0,12.381,5.91,12.615,13.258h0.023v-85.959
	C345.471,356.283,339.803,362.446,332.837,362.446z"/>
<path fill="#F9CFCF" d="M345.448,348.163c0.008,0.183,0.027,0.363,0.027,0.55v-0.55H345.448z"/>
<path fill="#3762CC" d="M332.837,452.873H59.874c-1.162,0-2.401-0.043-3.781-0.136l-4.74,0.008
	c-27.845,0-50.493-27.311-50.493-60.878c0-33.571,22.649-60.882,50.486-60.882h281.493c9.169,0,16.63,7.952,16.63,17.729
	c0,9.773-7.461,17.725-16.63,17.725H54.221c-11.086,0-20.103,11.433-20.103,25.49s9.02,25.49,20.103,25.49h278.616
	c9.169,0,16.63,7.952,16.63,17.725C349.467,444.924,342.005,452.873,332.837,452.873z M56.225,444.753
	c0.094,0,0.187,0.004,0.281,0.012c1.115,0.078,2.238,0.125,3.368,0.125h272.963c4.767,0,8.646-4.37,8.646-9.745
	c0-5.372-3.879-9.742-8.646-9.742H54.221c-15.488,0-28.086-15.016-28.086-33.474s12.599-33.474,28.086-33.474h278.616
	c4.767,0,8.646-4.37,8.646-9.742c0-5.376-3.879-9.745-8.646-9.745H51.344c-23.436,0-42.502,23.728-42.502,52.898
	c0,29.162,19.066,52.895,42.502,52.895l4.877-0.008H56.225z"/>
<path d="M324.358,425.406H54.221c-15.488,0-28.086-15.02-28.086-33.478s12.599-33.47,28.086-33.47h270.137
	c2.202,0,3.992,1.785,3.992,3.992v58.964C328.35,423.617,326.561,425.406,324.358,425.406z M54.221,366.438
	c-11.086,0-20.103,11.433-20.103,25.49s9.02,25.49,20.103,25.49h266.145v-50.981H54.221z"/>
<path fill="#FFB531" d="M285.782,265.498H121.379c-12.47,0-22.582-10.112-22.582-22.586V82.739c0-12.47,10.112-22.582,22.582-22.582
	h164.402c12.47,0,22.582,10.112,22.582,22.582v160.173C308.364,255.386,298.252,265.498,285.782,265.498z"/>
<path fill="#FFB531" d="M45.86,3.992c-22.649,0-41.009,18.361-41.009,41.009v346.865c0-29.096,17.951-53.148,41.009-56.481
	c1.801-0.261,3.629-0.409,5.485-0.409h20.469V3.992H45.86z"/>
<path d="M332.837,452.873H59.874c-1.162,0-2.401-0.043-3.781-0.136l-4.74,0.008c-27.845,0-50.493-27.311-50.493-60.878
	c0-33.571,22.649-60.882,50.486-60.882h281.493c9.169,0,16.63,7.952,16.63,17.729c0,9.773-7.461,17.725-16.63,17.725h-4.487v50.984
	h4.487c9.169,0,16.63,7.952,16.63,17.725C349.467,444.924,342.005,452.873,332.837,452.873z M56.225,444.753
	c0.094,0,0.187,0.004,0.281,0.012c1.115,0.078,2.238,0.125,3.368,0.125h272.963c4.767,0,8.646-4.37,8.646-9.745
	c0-5.372-3.879-9.742-8.646-9.742h-8.479c-2.202,0-3.992-1.789-3.992-3.992v-58.964c0-2.206,1.789-3.992,3.992-3.992h8.479
	c4.767,0,8.646-4.374,8.646-9.745c0-5.372-3.879-9.745-8.646-9.745H51.344c-23.436,0-42.502,23.732-42.502,52.899
	c0,29.166,19.066,52.898,42.502,52.898l4.877-0.008H56.225z"/>
<path fill="#F86E29" d="M71.81,385.239v94.527c0,2.709,3.368,3.961,5.138,1.914l19.768-22.847c1.142-1.325,3.193-1.353,4.37-0.058
	l21.214,23.264c1.801,1.976,5.087,0.702,5.087-1.972v-94.831H71.81V385.239z"/>
<path d="M345.475,438.66c-2.156,0-3.945-1.707-4.011-3.863c-0.164-5.181-4.035-9.395-8.627-9.395h-8.479
	c-2.202,0-3.992-1.789-3.992-3.992v-58.964c0-2.206,1.789-3.992,3.992-3.992h8.479c4.767,0,8.646-4.374,8.646-9.745
	c0-2.202,1.785-3.992,3.992-3.992c2.202,0,3.992,1.789,3.992,3.992v85.959C349.467,436.875,347.677,438.66,345.475,438.66z
	 M328.35,417.423h4.487c3.169,0,6.128,0.932,8.646,2.557v-56.13c-2.522,1.641-5.485,2.588-8.646,2.588h-4.487V417.423z"/>
<path fill="#3762CC" d="M345.475,352.705c-2.206,0-3.992-1.789-3.992-3.992l-0.023-0.402c-0.043-1.084,0.363-2.136,1.115-2.916
	c0.752-0.784,1.789-1.224,2.873-1.224h0.027c2.202,0,3.992,1.789,3.992,3.992v0.55C349.467,350.916,347.677,352.705,345.475,352.705
	z"/>
<path d="M285.778,269.486H121.379c-14.653,0-26.574-11.921-26.574-26.574V82.739c0-14.653,11.921-26.57,26.574-26.57h164.399
	c14.653,0,26.578,11.921,26.578,26.57v160.173C312.356,257.569,300.435,269.486,285.778,269.486z M121.379,64.153
	c-10.248,0-18.59,8.338-18.59,18.587v160.173c0,10.252,8.342,18.59,18.59,18.59h164.402c10.252,0,18.59-8.338,18.59-18.59V82.739
	c0-10.248-8.342-18.587-18.59-18.587H121.379z"/>
<path fill="#3762CC" d="M4.851,395.889c-1.82,0-3.36-1.197-3.836-2.869c0-0.004,0-0.004,0-0.004c-0.09-0.312-0.14-0.639-0.152-0.982
	v-0.047c0-0.043,0-0.09,0-0.121c0-2.206,1.789-3.992,3.992-3.992s3.992,1.785,3.992,3.992v0.078
	c-0.012,0.639-0.175,1.247-0.456,1.781v0.004v0.004c-0.628,1.197-1.836,2.047-3.251,2.148c-0.004-0.004-0.012,0-0.008,0
	c-0.008,0-0.008,0-0.008,0H5.12c-0.074,0.008-0.144,0.008-0.218,0.008c0,0,0,0-0.004,0C4.882,395.885,4.862,395.889,4.851,395.889z"
	/>
<path d="M4.851,395.858c-2.206,0-3.992-1.789-3.992-3.992V45.001C0.859,20.185,21.048,0,45.86,0h25.95
	c2.206,0,3.992,1.789,3.992,3.992v330.984c0,2.202-1.785,3.992-3.992,3.992H51.344c-1.579,0-3.228,0.125-4.912,0.37
	C25,342.433,8.842,365.015,8.842,391.866C8.842,394.069,7.057,395.858,4.851,395.858z M45.86,7.984
	c-20.411,0-37.017,16.606-37.017,37.017v314.015c7.898-14.84,21.015-25.35,36.444-27.58c2.062-0.3,4.101-0.452,6.058-0.452h16.474
	V7.984H45.86z"/>
<path d="M345.475,352.155c-2.148,0-3.937-1.7-4.015-3.848c-0.191-5.239-3.98-9.344-8.623-9.344H71.81
	c-2.202,0-3.992-1.785-3.992-3.992V3.992C67.818,1.789,69.607,0,71.81,0h264.555c0.503,0,0.982,0.094,1.427,0.265
	c6.724,1.169,11.671,6.95,11.671,13.85v334.048C349.467,350.37,347.677,352.155,345.475,352.155z M345.475,348.163h0.02H345.475z
	 M75.802,330.984h257.035c3.165,0,6.128,0.936,8.646,2.565V14.115c0-3.13-2.374-5.734-5.52-6.05
	c-0.168-0.019-0.331-0.043-0.491-0.082H75.802V330.984z"/>
<path fill="#FAE890" d="M176.554,80.112c-0.854-2.374-3.119-3.968-5.637-3.968h-14.139c-2.518,0-4.783,1.594-5.637,3.968
	l-34.413,96.2c-0.659,1.828-0.378,3.871,0.741,5.461c1.119,1.59,2.951,2.542,4.896,2.542h9.317c2.538,0,4.806-1.606,5.648-4
	l5.606-15.924c0.285-0.795,1.041-1.333,1.883-1.333h37.906c0.846,0,1.602,0.538,1.883,1.333l5.606,15.924
	c0.846,2.39,3.115,3.996,5.648,3.996h9.469c1.945,0,3.773-0.951,4.896-2.538c1.119-1.59,1.396-3.633,0.741-5.465L176.554,80.112z
	 M161.948,110.171c0.437-1.236,1.551-1.333,1.883-1.333s1.45,0.097,1.883,1.337l11.305,32.316c0.214,0.62,0.125,1.283-0.257,1.817
	c-0.374,0.534-0.971,0.838-1.626,0.838h-22.711c-0.655,0-1.251-0.308-1.629-0.842c-0.378-0.538-0.472-1.201-0.253-1.817
	L161.948,110.171z"/>
<path fill="#FAE890" d="M285.739,158.2c0.616-0.963,0.939-2.078,0.939-3.22v-8.167c0-3.302-2.686-5.988-5.988-5.988h-60.57
	c-3.302,0-5.988,2.686-5.988,5.988v6.834c0,3.302,2.686,5.988,5.988,5.988h36.939c1.068,0,1.579,0.725,1.75,1.037
	c0.172,0.312,0.507,1.13-0.062,2.031l-43.683,68.784c-0.612,0.959-0.932,2.07-0.932,3.208v8.167c0,3.302,2.686,5.988,5.988,5.988
	h60.57c3.302,0,5.988-2.686,5.988-5.988v-6.834c0-3.302-2.686-5.988-5.988-5.988h-37.08c-1.068,0-1.579-0.725-1.75-1.041
	c-0.172-0.308-0.507-1.13,0.066-2.031L285.739,158.2z"/>
<path d="M341.457,348.713c0,0,0,2.912-1.441,5.421l9.451,3.616V345.5"/>
</svg>
