<svg id="Capa_1" enable-background="new 0 0 512 512" height="512" viewBox="0 0 512 512" width="512" xmlns="http://www.w3.org/2000/svg"><g><g><g><path d="m408 480h-304v-224c0-44.183 35.817-80 80-80h144c44.183 0 80 35.817 80 80z" fill="#c8f5f0"/></g></g><g><g><path d="m216 120c13.255 0 24-10.745 24-24v-40h31.928v40c0 13.255 10.745 24 24 24h.072" fill="#a7c5c9"/></g></g><g><g><path d="m336 440v-80h-24v-192h-16v-48h-80v48h-16v192h-24v80h-32v32h224v-32z" fill="#ffd3ae"/></g></g><g><g><path d="m280 416v-56h32v-24h-32v-176h-48v176h-32v24h32v56h-56v24h160v-24z" fill="#ffb895"/></g></g><g><g><path d="m136 488c0 13.255 10.745 24 24 24h192c13.255 0 24-10.745 24-24z" fill="#d1c9d1"/></g></g><g><g><path d="m392 496h-272c-8.837 0-16-7.163-16-16l8.003-8h287.999l7.998 8c0 8.837-7.163 16-16 16z" fill="#a494a4"/></g></g><g><path d="m295.928 112c-8.822 0-16-7.178-16-16v-40c0-4.418-3.582-8-8-8h-7.928v-40c0-4.418-3.582-8-8-8s-8 3.582-8 8v40h-8c-4.418 0-8 3.582-8 8v40c0 8.822-7.178 16-16 16v16c17.645 0 32-14.355 32-32v-32h15.928v32c0 17.645 14.355 32 32.072 32z" fill="#7c657c"/><path d="m392 464h-16v-24c0-4.418-3.582-8-8-8h-24v-72c0-4.418-3.582-8-8-8h-16v-184c0-4.418-3.582-8-8-8h-8v-40c0-4.418-3.582-8-8-8h-80c-4.418 0-8 3.582-8 8v40h-8c-4.418 0-8 3.582-8 8v184h-16c-4.418 0-8 3.582-8 8v72h-24c-4.418 0-8 3.582-8 8v24h-16c-8.836 0-16 7.164-16 16h304c0-8.836-7.163-16-16-16zm-64-32h-40v-64h40zm-88 0v-32h32v32zm48-80v-176h16v176zm-64-224h64v32h-8c-4.418 0-8 3.582-8 8v216h-32v-216c0-4.418-3.582-8-8-8h-8zm-16 48h16v176h-16zm-24 192h40v64h-40zm-32 80h208v16h-208z" fill="#503250"/></g></g></svg>