<svg height="512pt" viewBox="0 -18 512.00053 512" width="512pt" xmlns="http://www.w3.org/2000/svg"><path d="m15.636719 281.816406 178.835937 178.835938c9.957032 9.953125 25.78125 10.898437 36.847656 2.191406l226.84375-178.429688c13.109376-10.3125 14.265626-29.761718 2.472657-41.554687l-227.203125-227.207031c-11.796875-11.796875-31.246094-10.636719-41.558594 2.472656l-178.429688 226.84375c-8.707031 11.066406-7.765624 26.890625 2.191407 36.847656zm0 0" fill="#91d1e0"/><path d="m194.472656 460.652344-97.476562-97.476563c188.15625-42.523437 246.460937-142.285156 272.878906-211.078125l90.761719 90.757813c11.792969 11.796875 10.636719 31.246093-2.472657 41.558593l-226.84375 178.429688c-11.066406 8.707031-26.890624 7.761719-36.847656-2.191406zm0 0" fill="#56b9d1"/><path d="m173.175781 114.742188v49.707031c0 9.339843 7.570313 16.914062 16.910157 16.914062h49.710937c9.339844 0 16.910156-7.574219 16.910156-16.914062v-49.707031c0-9.339844-7.570312-16.914063-16.910156-16.914063h-49.710937c-9.339844 0-16.910157 7.574219-16.910157 16.914063zm0 0" fill="#fff"/><path d="m222.726562 144.378906c4.140626 0 7.5-3.359375 7.5-7.5v-10.132812c0-4.140625-3.359374-7.5-7.5-7.5-4.144531 0-7.503906 3.359375-7.503906 7.5v10.132812c0 4.140625 3.359375 7.5 7.503906 7.5zm0 0" fill="#ececed"/><path d="m197.421875 157.035156c4.140625 0 7.5-3.359375 7.5-7.5v-14.097656c0-4.144531-3.359375-7.5-7.5-7.5-4.144531 0-7.5 3.355469-7.5 7.5v14.097656c0 4.140625 3.355469 7.5 7.5 7.5zm0 0" fill="#ececed"/><path d="m268.578125 250.105469 35.148437 35.148437c6.605469 6.605469 17.3125 6.605469 23.917969 0l35.148438-35.148437c6.605469-6.605469 6.605469-17.3125 0-23.917969l-35.148438-35.148438c-6.605469-6.605468-17.316406-6.605468-23.917969 0l-35.148437 35.148438c-6.605469 6.605469-6.605469 17.3125 0 23.917969zm0 0" fill="#fff"/><path d="m343.371094 206.769531 19.421875 19.417969c6.605469 6.605469 6.605469 17.3125 0 23.917969l-35.152344 35.148437c-6.601563 6.605469-17.3125 6.605469-23.914063 0l-13.875-13.871094c23.308594-21.050781 40.484376-43.179687 53.519532-64.613281zm0 0" fill="#ececed"/><path d="m301.019531 230.421875h10.132813c4.144531 0 7.5-3.355469 7.5-7.5 0-4.140625-3.355469-7.5-7.5-7.5h-10.132813c-4.144531 0-7.5 3.359375-7.5 7.5 0 4.144531 3.359375 7.5 7.5 7.5zm0 0" fill="#ececed"/><path d="m325.125 250.429688h14.097656c4.140625 0 7.5-3.355469 7.5-7.5 0-4.140626-3.359375-7.5-7.5-7.5h-14.097656c-4.144531 0-7.5 3.359374-7.5 7.5 0 4.144531 3.355469 7.5 7.5 7.5zm0 0" fill="#fff"/><path d="m13.445312 244.96875 125.707032-159.816406c53.175781 57.003906 68.160156 91.074218 114.535156 137.449218 15.113281 15.113282 27.191406 33.613282 64.902344 38.128907 31.996094 3.832031 77.851562-36.054688 107.976562-66.789063 17.691406-18.050781 46.734375-18.128906 64.605469-.253906 19.285156 19.285156 17.390625 51.085938-4.042969 67.945312l-255.808594 201.210938c-11.066406 8.707031-26.890624 7.761719-36.847656-2.191406l-178.835937-178.835938c-9.957031-9.957031-10.898438-25.78125-2.191407-36.847656zm0 0" fill="#ca9885"/><path d="m194.472656 460.652344-97.476562-97.476563c101.730468-22.992187 165.503906-62.714843 206.796875-105.230469 4.460937 1.183594 9.355469 2.132813 14.796875 2.785157 31.992187 3.832031 77.851562-36.054688 107.972656-66.789063 17.695312-18.054687 46.734375-18.128906 64.609375-.257812 19.285156 19.285156 17.390625 51.085937-4.046875 67.945312l-255.804688 201.214844c-11.066406 8.707031-26.890624 7.761719-36.847656-2.191406zm0 0" fill="#bf6f4a"/><path d="m261.363281 439.214844-30.042969 23.628906c-11.066406 8.703125-26.894531 7.761719-36.847656-2.191406l-178.835937-178.835938c-9.957031-9.957031-10.898438-25.78125-2.191407-36.851562l23.628907-30.039063zm0 0" fill="#809fdd"/><path d="m229.386719 326.355469c-10.214844 10.214843-8.097657 28.898437 4.730469 41.726562 12.828124 12.828125 31.511718 14.945313 41.726562 4.730469 10.214844-10.21875 8.097656-28.898438-4.730469-41.726562-12.828125-12.828126-31.507812-14.949219-41.726562-4.730469zm0 0" fill="#fff"/><path d="m149.9375 246.898438c10.21875-10.21875 8.101562-28.898438-4.730469-41.726563-12.828125-12.828125-31.507812-14.945313-41.722656-4.730469-10.21875 10.214844-8.101563 28.898438 4.730469 41.726563 12.828125 12.828125 31.507812 14.945312 41.722656 4.730469zm0 0" fill="#fff"/><path d="m452.949219 119.242188c0 16.730468-13.5625 30.292968-30.292969 30.292968-16.726562 0-30.289062-13.5625-30.289062-30.292968 0-16.726563 13.5625-30.289063 30.289062-30.289063 16.730469 0 30.292969 13.5625 30.292969 30.289063zm0 0" fill="#ca9885"/><path d="m194.472656 460.652344-97.476562-97.476563c25.058594-5.664062 47.816406-12.339843 68.5-19.828125l95.863281 95.867188-30.039063 23.628906c-11.066406 8.707031-26.890624 7.761719-36.847656-2.191406zm0 0" fill="#5e82c9"/><path d="m166.128906 211.328125c1.535156 1.535156 2.382813 3.578125 2.382813 5.753906 0 2.171875-.847657 4.214844-2.382813 5.75-2.929687 2.929688-2.929687 7.679688 0 10.605469 1.464844 1.464844 3.386719 2.199219 5.304688 2.199219 1.917968 0 3.839844-.730469 5.300781-2.195313 4.371094-4.371094 6.777344-10.179687 6.777344-16.359375 0-6.183593-2.40625-11.992187-6.777344-16.359375-4.367187-4.371094-10.175781-6.777344-16.355469-6.777344-6.179687 0-11.992187 2.40625-16.363281 6.777344-2.925781 2.925782-2.925781 7.675782 0 10.605469 2.933594 2.929687 7.679687 2.929687 10.609375 0 1.535156-1.539063 3.578125-2.382813 5.753906-2.382813 2.171875 0 4.214844.847657 5.75 2.382813zm294.320313-92.085937c0-20.835938-16.953125-37.789063-37.789063-37.789063-20.839844 0-37.792968 16.953125-37.792968 37.789063 0 20.839843 16.953124 37.792968 37.792968 37.792968 20.835938 0 37.789063-16.953125 37.789063-37.792968zm-15 0c0 12.566406-10.222657 22.792968-22.789063 22.792968s-22.792968-10.222656-22.792968-22.792968c0-12.566407 10.226562-22.789063 22.792968-22.789063s22.789063 10.222656 22.789063 22.789063zm-180.488281 190.917968c1.539062 1.535156 2.382812 3.578125 2.382812 5.75 0 2.175782-.84375 4.21875-2.382812 5.753906-2.929688 2.929688-2.929688 7.679688 0 10.605469 1.464843 1.464844 3.386718 2.199219 5.304687 2.199219s3.839844-.734375 5.304687-2.199219c4.367188-4.367187 6.773438-10.179687 6.773438-16.359375 0-6.179687-2.40625-11.988281-6.773438-16.359375-9.023437-9.019531-23.699218-9.019531-32.722656 0-2.929687 2.929688-2.929687 7.679688 0 10.609375 2.929688 2.925782 7.679688 2.925782 10.609375 0 3.171875-3.171875 8.332031-3.171875 11.503907 0zm-254.625-23.039062 178.832031 178.832031c6.847656 6.847656 15.894531 10.335937 24.976562 10.335937 7.679688 0 15.382813-2.488281 21.8125-7.550781l255.808594-201.210937c11.898437-9.359375 19.242187-23.398438 20.140625-38.515625.898438-15.113281-4.722656-29.921875-15.429688-40.628907-5.128906-5.128906-11.117187-9.082031-17.800781-11.753906-3.847656-1.535156-8.210937.335938-9.75 4.179688-1.539062 3.847656.335938 8.210937 4.179688 9.75 4.789062 1.914062 9.082031 4.75 12.765625 8.433594 7.675781 7.675781 11.707031 18.292968 11.0625 29.132812-.644532 10.835938-5.910156 20.902344-14.441406 27.613281l-220.535157 173.46875-169.882812-169.886719c-2.929688-2.929687-7.675781-2.929687-10.605469 0-2.929688 2.929688-2.929688 7.679688 0 10.605469l168.617188 168.617188-23.402344 18.40625c-8.074219 6.351562-19.644532 5.664062-26.90625-1.601563l-178.835938-178.835937c-7.265625-7.265625-7.953125-18.832031-1.601562-26.90625l18.40625-23.402344 18.550781 18.554687c1.464844 1.464844 3.386719 2.195313 5.304687 2.195313 1.917969 0 3.839844-.730469 5.304688-2.195313 2.929688-2.929687 2.929688-7.679687 0-10.605468l-19.820312-19.820313 92.515624-117.621093c10.660157 11.703124 19.667969 22.382812 27.78125 32.476562 0 .003906.003907.007812.007813.011719 8.820313 10.972656 16.582031 21.246093 24.210937 31.351562 6.488282 8.597657 12.847657 17.011719 19.601563 25.5.035156.042969.0625.082031.097656.121094 10.648438 13.378906 22.300781 26.945313 37.085938 41.734375 2.011719 2.011719 3.957031 4.074219 6.015625 6.257812 13.171875 13.96875 28.101562 29.796876 63.296875 34.015626 1.730469.207031 3.503906.308593 5.316406.308593 27.207031 0 63.796875-23.273437 108.90625-69.296875 3.476563-3.546875 7.527344-6.328125 12.042969-8.273437 3.804687-1.636719 5.5625-6.046875 3.925781-9.851563-1.632813-3.804687-6.046875-5.5625-9.851563-3.925781-6.316406 2.714844-11.980468 6.601563-16.828124 11.550781-.691407.703125-1.371094 1.382813-2.054688 2.078125l-180.421875-180.421875c-7.136719-7.136718-17.015625-10.882812-27.082031-10.285156-10.074219.597656-19.433594 5.492188-25.671875 13.425781l-52.722657 67.027344-102 129.671875c-.003906.003906-.007812.011719-.011718.015625l-23.695313 30.128906c-11.046875 14.039063-9.847656 34.15625 2.785157 46.789063zm263-55.011719c.175781-.210937.347656-.421875.542968-.617187l35.148438-35.148438c3.667968-3.671875 9.644531-3.671875 13.3125 0l35.148437 35.148438c2.289063 2.289062 3.179688 5.496093 2.527344 8.570312-16.203125 9.921875-29.957031 14.488281-40.535156 13.222656-23.507813-2.816406-35.835938-11.226562-46.144531-21.175781zm-92.660157-117.367187c0-5.191407 4.222657-9.414063 9.410157-9.414063h49.707031c5.191406 0 9.414062 4.222656 9.414062 9.414063v49.707031c0 5.191406-4.222656 9.414062-9.414062 9.414062h-19.101563c-5.839844-7.421875-11.429687-14.816406-17.121094-22.355469-7.25-9.605468-14.621093-19.363281-22.898437-29.726562v-7.039062zm-31.675781-29.980469 48.769531-62c3.589844-4.566407 8.976563-7.382813 14.773438-7.726563 5.792969-.347656 11.476562 1.8125 15.582031 5.917969l180.332031 180.332031c-12.199219 11.644532-23.71875 21.4375-34.40625 29.289063-1.164062-3.566407-3.160156-6.894531-5.957031-9.6875l-35.144531-35.148438c-9.523438-9.519531-25.007813-9.519531-34.527344 0l-35.148437 35.148438c-.136719.132812-.261719.28125-.390626.417969-1.277343-1.34375-2.570312-2.6875-3.890624-4.007813-9.894532-9.894531-18.367188-19.269531-26.097657-28.433594h6.902344c13.460937 0 24.410156-10.949219 24.410156-24.410156v-49.710937c0-13.460938-10.949219-24.410157-24.410156-24.410157h-49.710937c-10.253907 0-19.046876 6.359375-22.65625 15.335938-5.617188-6.632813-11.699219-13.570313-18.429688-20.90625zm47.832031 194.695312c-2.960937-2.960937-4.496093-7.0625-4.207031-11.253906.285156-4.128906-2.835938-7.710937-6.96875-7.996094-4.132812-.277343-7.710938 2.835938-7.996094 6.96875-.585937 8.515625 2.535156 16.859375 8.5625 22.886719 5.550782 5.550781 13.058594 8.636719 20.859375 8.636719.675781 0 1.351563-.023438 2.03125-.070313 4.132813-.285156 7.25-3.863281 6.96875-7.996094-.285156-4.132812-3.863281-7.246093-8-6.96875-4.195312.292969-8.289062-1.246093-11.25-4.207031zm0 0"/></svg>