<?xml version="1.0" encoding="utf-8"?>
<!-- Generator: Adobe Illustrator 17.0.0, SVG Export Plug-In . SVG Version: 6.00 Build 0)  -->
<!DOCTYPE svg PUBLIC "-//W3C//DTD SVG 1.1//EN" "http://www.w3.org/Graphics/SVG/1.1/DTD/svg11.dtd">
<svg version="1.1" id="Capa_1" xmlns="http://www.w3.org/2000/svg" xmlns:xlink="http://www.w3.org/1999/xlink" x="0px" y="0px"
	 width="524.752px" height="612.001px" viewBox="43.624 89.999 524.752 612.001"
	 enable-background="new 43.624 89.999 524.752 612.001" xml:space="preserve">
<path fill="#96C8EF" d="M559.287,117.645l-23.625,246.93l-18.117,189.314H94.449L76.331,364.575l-23.625-246.93
	C51.746,107.65,59.653,99,69.744,99h472.505C552.338,99,560.247,107.65,559.287,117.645z"/>
<path fill="#B3D8F4" d="M559.287,117.645l-23.625,246.93l-18.117,189.314H148.239l-18.117-189.314l-23.627-246.93
	C105.535,107.65,113.442,99,123.533,99h418.714C552.338,99,560.247,107.65,559.287,117.645z"/>
<path fill="#96C8EF" d="M517.543,553.89v131.024c0,4.463-3.611,8.087-8.076,8.087H102.524c-4.463,0-8.076-3.623-8.076-8.087V553.89
	H517.543z"/>
<path fill="#C2DFF6" d="M204.373,454.909L129.4,342.706c-3.263-4.884-1.95-11.489,2.934-14.754l112.86-75.413
	c4.884-3.263,11.489-1.95,14.754,2.934l74.974,112.203c3.263,4.884,1.95,11.489-2.934,14.754l-112.86,75.413
	C214.244,461.106,207.638,459.793,204.373,454.909z"/>
<path fill="#D1E7F8" d="M432.17,285.318l44.702,127.327c1.946,5.544-0.969,11.614-6.513,13.56L342.285,471.17
	c-5.544,1.946-11.614-0.969-13.56-6.513l-44.702-127.327c-1.946-5.544,0.969-11.614,6.513-13.56l128.074-44.965
	C424.152,276.86,430.223,279.776,432.17,285.318z"/>
<polygon fill="#EE8700" points="535.661,364.575 523.578,490.788 517.543,553.89 94.449,553.89 88.414,490.788 76.331,364.575 "/>
<path fill="#B3D8F4" d="M517.543,622.173v62.741c0,4.463-3.611,8.087-8.076,8.087H102.524c-4.463,0-8.076-3.623-8.076-8.087v-62.741
	L517.543,622.173L517.543,622.173z"/>
<path fill="#CC7400" d="M139.736,465.044l-9.615-100.467H76.33L94.448,553.89h53.79h369.305l6.035-63.101H168.062
	C153.397,490.788,141.133,479.643,139.736,465.044z"/>
<path d="M568.369,116c0-14.338-11.722-26-26.12-26H219.042c-4.968,0-9,4.032-9,9c0,4.98,4.032,9,9,9h323.206
	c4.979,0,8.645,4.414,8.076,8.783l-12.563,131.3c-0.469,4.956,3.156,9.347,8.111,9.815c0.288,0.036,0.576,0.048,0.864,0.048
	c4.584,0,8.495-3.492,8.939-8.147C569.087,109.319,568.369,118.058,568.369,116z"/>
<path d="M544.156,275.81c-4.932-0.467-9.347,3.156-9.815,8.111l-6.852,71.655h-61.121l-25.714-73.239
	c-2.748-7.859-10.198-13.139-18.526-13.139c-2.208,0-4.404,0.372-6.504,1.116l-47.527,16.69c-4.692,1.644-7.152,6.779-5.507,11.47
	c1.644,4.68,6.78,7.152,11.47,5.507l47.527-16.69c0.18-0.06,0.36-0.096,0.54-0.096c0.576,0,1.284,0.348,1.548,1.103l23.625,67.276
	c-14.115,0-124.505,0-147.343,0l-7.452-21.225c-0.06-0.18-0.096-0.36-0.096-0.54c0-0.588,0.348-1.284,1.104-1.548l4.716-1.656
	l17.542-6.156l24.333-8.543c4.68-1.656,7.152-6.792,5.507-11.47c-1.644-4.692-6.792-7.164-11.47-5.52l-28.701,10.079l-39.103-58.53
	c-3.648-5.459-9.755-8.723-16.33-8.723c-3.899,0-7.667,1.14-10.907,3.312l-112.859,75.411c-5.459,3.66-8.723,9.767-8.723,16.342
	c0,3.887,1.14,7.655,3.311,10.895l5.256,7.871H84.515C68.367,186.702,61.633,116.63,61.633,116c0-4.404,3.636-8.003,8.111-8.003
	h113.302c4.968,0,9-4.02,9-9c0-4.968-4.032-9-9-9H69.744c-15.561,0.001-27.51,13.507-25.99,28.497l32.552,340.245
	c0.443,4.656,4.356,8.147,8.939,8.147c0.288,0,0.576-0.012,0.876-0.036c4.944-0.481,8.567-4.871,8.099-9.815l-7.979-83.463
	c149.482,0,316.189,0,439.52,0l-16.39,171.316H102.62l-4.968-52.026c-0.481-4.944-4.883-8.591-9.815-8.099
	c-4.956,0.469-8.579,4.859-8.111,9.815l5.723,59.789v130.545c0,9.419,7.655,17.086,17.074,17.086h406.944
	c9.419,0,17.074-7.667,17.074-17.086V554.369l25.714-268.744C552.723,280.681,549.099,276.291,544.156,275.81z M287.554,315.273
	c-7.859,2.76-13.139,10.21-13.139,18.538c0,2.208,0.384,4.392,1.116,6.504l5.363,15.262h-133.16
	c-12.294-18.562-12.215-17.859-12.215-18.765c0-0.276,0.072-0.936,0.732-1.379c120.398-80.333,112.836-75.687,113.759-75.687
	c0.264,0,0.924,0.072,1.367,0.732l36.536,54.677L287.554,315.273z M508.545,684.002H103.448V562.888h405.096L508.545,684.002
	L508.545,684.002z"/>
<polyline fill="#96C8EF" points="123.168,291.897 129.224,355.191 102.5,355.191 "/>
<polyline fill="#B3D8F4" points="129.224,355.191 498.5,355.191 434,203 191,193.5 117.011,227.547 "/>
<polyline fill="#B3D8F4" points="123.667,298 129.224,355.833 185,355.833 "/>
<polyline points="87,355.576 332.167,355.576 332.167,363.5 89,363.5 "/>
</svg>
