<svg id="Capa_1" enable-background="new 0 0 507.576 507.576" height="512" viewBox="0 0 507.576 507.576" width="512" xmlns="http://www.w3.org/2000/svg"><g><g><g><circle cx="375.198" cy="106.446" fill="#fe9901" r="98.946"/></g></g><g><g><path d="m375.198 7.5c-5.099 0-10.108.387-15 1.13 47.528 7.228 83.946 48.269 83.946 97.816s-36.418 90.587-83.946 97.816c4.892.744 9.901 1.13 15 1.13 54.646 0 98.946-44.3 98.946-98.946s-44.3-98.946-98.946-98.946z" fill="#fb8801"/></g></g><g><g><circle cx="375.198" cy="106.446" fill="#fea613" r="56.528"/></g></g><g><g><path d="m375.198 49.918c-5.195 0-10.221.715-15 2.028 23.936 6.574 41.528 28.476 41.528 54.5s-17.592 47.927-41.528 54.5c4.779 1.312 9.805 2.028 15 2.028 31.22 0 56.528-25.308 56.528-56.528s-25.309-56.528-56.528-56.528z" fill="#fe9901"/></g></g><g><g><path d="m334.661 500.076h-263.105c-14.886 0-27.069-11.845-27.489-26.725l-10.634-357.536h339.352l-10.635 357.536c-.419 14.88-12.603 26.725-27.489 26.725z" fill="#f7f9f5"/></g></g><g><g><path d="m342.785 115.815-10.635 357.536c-.419 14.88-12.603 26.725-27.489 26.725h30c14.886 0 27.069-11.845 27.489-26.725l10.635-357.536z" fill="#eceae6"/></g></g><g><g><path d="m36.001 206.995 4.776 169.53c.875 31.062 26.307 55.788 57.381 55.788h209.901c31.074 0 56.506-24.726 57.381-55.788l4.776-169.53z" fill="#fe7d43"/></g></g><g><g><path d="m340.216 206.995-4.776 169.53c-.875 31.062-26.307 55.788-57.381 55.788h30c31.074 0 56.506-24.726 57.381-55.788l4.776-169.53z" fill="#fd6930"/></g></g><g><g><path d="m202.094 387.667v-65.625c0-6.386 5.177-11.562 11.562-11.562h65.625c6.386 0 11.562 5.177 11.562 11.562v65.625c0 6.386-5.177 11.562-11.562 11.562h-65.625c-6.385 0-11.562-5.177-11.562-11.562z" fill="#fece85"/></g></g><g><g><path d="m279.282 310.479h-30c6.386 0 11.562 5.177 11.562 11.562v65.625c0 6.386-5.177 11.562-11.562 11.562h30c6.386 0 11.562-5.177 11.562-11.562v-65.625c0-6.385-5.177-11.562-11.562-11.562z" fill="#fec165"/></g></g><g><g><path d="m322.806 335.825-65.366-5.822c-6.36-.567-11.057-6.182-10.491-12.542l5.822-65.366c.567-6.36 6.182-11.057 12.542-10.491l65.366 5.822c6.36.567 11.057 6.182 10.491 12.542l-5.822 65.366c-.566 6.361-6.181 11.058-12.542 10.491z" fill="#fece85"/></g></g><g><g><path d="m330.68 247.426-65.366-5.822c-2.794-.249-5.443.519-7.585 1.997l42.951 3.826c6.36.567 11.057 6.182 10.491 12.542l-5.822 65.366c-.318 3.566-2.224 6.609-4.957 8.494l22.415 1.997c6.36.566 11.976-4.13 12.542-10.491l5.822-65.366c.566-6.361-4.131-11.977-10.491-12.543z" fill="#fec165"/></g></g><g><g><path d="m129.538 240.448c40.319-1.831 68.107 40.088 50.524 76.417-7.494 15.484-17.55 28.092-30.929 31.772s-28.468-2.01-42.828-11.483c-33.69-22.225-31.251-72.459 4.331-91.507 5.834-3.122 12.293-4.899 18.902-5.199z" fill="#fd5426"/></g></g><g><g><path d="m129.538 240.448c-4.081.185-8.103.937-11.956 2.217 29.923 9.063 47.285 43.612 32.481 74.2-6.462 13.352-14.835 24.549-25.594 29.744 8.481 3.118 16.864 4.174 24.665 2.028 13.379-3.68 23.435-16.288 30.929-31.772 17.582-36.329-10.206-78.248-50.525-76.417z" fill="#ef4424"/></g></g><g><g><circle cx="219.488" cy="254.315" fill="#fead8a" r="12.778"/></g></g><g><g><circle cx="89.769" cy="376.037" fill="#fead8a" r="12.778"/></g></g><g><g><circle cx="66.071" cy="242.848" fill="#fead8a" r="9.571"/></g></g><g><g><circle cx="323.188" cy="378.838" fill="#fead8a" r="9.977"/></g></g><g><path d="m481.644 106.446c0-58.695-47.752-106.446-106.446-106.446s-106.447 47.751-106.447 106.446c0 .646.09 1.27.244 1.869h-97.521c-4.143 0-7.5 3.358-7.5 7.5s3.357 7.5 7.5 7.5h193.583l-2.266 76.18h-248.28l-21.622-76.18h48.585c4.143 0 7.5-3.358 7.5-7.5s-3.357-7.5-7.5-7.5h-52.841l-5.609-19.76c10.974-6.473 16.74-19.73 13.203-32.589-2.05-7.45-6.877-13.656-13.594-17.475-6.718-3.819-14.518-4.793-21.969-2.744-7.45 2.049-13.656 6.877-17.475 13.594s-4.793 14.519-2.744 21.969c3.527 12.822 15.201 21.258 27.899 21.258.074 0 .15-.007.224-.007l4.472 15.755h-39.607c-2.027 0-3.969.821-5.382 2.276-1.412 1.455-2.175 3.42-2.115 5.447l10.635 357.524c.537 19.073 15.904 34.014 34.985 34.014h263.105c19.081 0 34.448-14.941 34.985-34.002l7.755-260.71c57.681-1.179 104.243-48.461 104.243-106.419zm-426.736-39.114c-.986-3.587-.518-7.343 1.321-10.577 1.838-3.234 4.826-5.558 8.413-6.545 1.229-.338 2.476-.505 3.716-.505 2.381 0 4.734.617 6.86 1.826 3.234 1.839 5.559 4.826 6.545 8.413 2.037 7.404-2.33 15.085-9.733 17.122-7.407 2.039-15.084-2.331-17.122-9.734zm271.301 40.983c-.023-.623-.038-1.246-.038-1.869 0-27.034 21.993-49.028 49.027-49.028s49.028 21.994 49.028 49.028c0 25.715-19.904 46.854-45.112 48.858l1.168-39.266c.06-2.027-.703-3.992-2.115-5.447-1.413-1.455-3.354-2.276-5.382-2.276zm-248.911 15 21.622 76.18h-55.495l-2.266-76.18zm257.363 369.261h-263.105c-10.903 0-19.685-8.538-19.991-19.448l-1.63-54.802c.96 1.064 1.944 2.11 2.98 3.118 12.184 11.845 28.251 18.368 45.243 18.368h104.951c4.143 0 7.5-3.358 7.5-7.5s-3.357-7.5-7.5-7.5h-104.951c-13.064 0-25.419-5.016-34.787-14.123-7.817-7.6-12.831-17.362-14.495-27.974l-5.004-168.221h59.306l6.589 23.214c-.903.417-1.794.858-2.669 1.327-19.105 10.228-31.105 29.269-32.1 50.934-.989 21.586 9.171 41.566 27.179 53.446 13.973 9.218 26.829 13.851 38.375 13.851 1.05 0 2.085-.049 3.114-.126l13.143 46.307c.937 3.3 3.942 5.454 7.211 5.454.678 0 1.367-.093 2.052-.287 3.984-1.131 6.298-5.278 5.167-9.263l-13.109-46.186c11.09-5.509 20.718-16.57 28.685-33.032 9.398-19.419 7.91-41.784-3.981-59.827-11.935-18.109-32.006-28.334-53.634-27.35h-.001c-1.688.077-3.372.253-5.047.496l-5.381-18.957h243.576l-5.07 170.453c-.323.577-.581 1.203-.745 1.877-5.475 22.367-25.406 37.988-48.471 37.988h-74.951c-4.143 0-7.5 3.358-7.5 7.5s3.357 7.5 7.5 7.5h74.951c18.932 0 36.236-8.102 48.22-21.391l-1.628 54.719c-.307 10.898-9.088 19.435-19.992 19.435zm-204.783-244.636c16.339-.744 31.432 6.968 40.43 20.62 8.954 13.586 10.077 30.423 3.004 45.038-7.635 15.776-16.439 25.132-26.167 27.808-9.725 2.677-22.078-.86-36.709-10.512-13.553-8.941-21.199-23.983-20.454-40.238.749-16.334 9.794-30.688 24.195-38.397 2.065-1.106 4.248-1.999 6.493-2.693.081-.02.162-.028.243-.051.23-.065.453-.143.672-.228 2.705-.76 5.495-1.22 8.293-1.347zm247.97-50.089.817-27.474c33.699-1.808 60.561-29.79 60.561-63.931 0-35.305-28.723-64.028-64.028-64.028s-64.027 28.723-64.027 64.028c0 .623.021 1.246.039 1.869h-27.702c.154-.599.244-1.222.244-1.869 0-50.424 41.022-91.446 91.446-91.446s91.446 41.022 91.446 91.446c0 49.537-39.593 89.997-88.796 91.405z"/><path d="m298.344 387.667v-46.491l23.797 2.12h-.001c.577.051 1.152.077 1.726.077 4.458 0 8.734-1.547 12.196-4.442 3.905-3.267 6.305-7.859 6.757-12.93l5.822-65.367c.451-5.072-1.099-10.015-4.365-13.921-3.267-3.906-7.858-6.305-12.931-6.757l-65.366-5.822c-10.479-.932-19.745 6.827-20.679 17.296l-4.591 51.551h-27.052c-10.511 0-19.063 8.551-19.063 19.062v65.625c0 10.511 8.552 19.062 19.063 19.062h65.625c10.51-.001 19.062-8.553 19.062-19.063zm-38.103-134.906c.188-2.11 1.965-3.703 4.044-3.703.12 0 .241.005.363.016l65.366 5.822c2.23.199 3.884 2.175 3.685 4.406l-5.822 65.367c-.096 1.081-.607 2.059-1.439 2.755s-1.896 1.025-2.966.93c-.001 0-.001 0-.001 0l-65.365-5.822c-1.081-.096-2.06-.608-2.756-1.44s-1.026-1.885-.93-2.967zm-50.647 134.906v-65.625c0-2.24 1.822-4.062 4.063-4.062h25.775c-.13 4.652 1.401 9.136 4.413 12.737 3.267 3.906 7.858 6.305 12.931 6.757l26.569 2.366v47.827c0 2.24-1.822 4.062-4.063 4.062h-65.625c-2.241 0-4.063-1.823-4.063-4.062z"/><path d="m132.274 274.615c7.021-.317 13.313 2.808 17.305 8.576 3.92 5.666 4.653 12.79 1.962 19.058-1.634 3.806.126 8.217 3.933 9.851.965.415 1.968.611 2.955.611 2.908 0 5.676-1.701 6.896-4.542 4.742-11.044 3.468-23.572-3.41-33.512-6.89-9.958-18.213-15.578-30.319-15.025-4.139.188-7.34 3.695-7.152 7.832.186 4.136 3.696 7.348 7.83 7.151z"/></g></g></svg>