<svg xmlns="http://www.w3.org/2000/svg" height="538pt" version="1.1" viewBox="-71 0 538 538.69273" width="538pt">
<g id="surface1">
<path d="M 254.429688 528.28125 C 188.828125 528.28125 94.28125 491.40625 16.667969 316.03125 L 10.882812 303.0625 L 25.03125 301.132812 C 47.554688 298.078125 70.257812 296.535156 92.992188 296.523438 C 132.945312 295.921875 172.75 301.636719 210.910156 313.460938 L 213.699219 313.460938 C 250.175781 325.164062 282.519531 347.121094 306.851562 376.707031 L 307.496094 377.457031 C 330.425781 407.375 344.597656 443.082031 348.445312 480.578125 L 351.230469 502.019531 L 332.363281 510.59375 C 307.921875 521.902344 281.359375 527.9375 254.429688 528.28125 Z M 214.125 474.683594 L 278.441406 459.78125 Z M 261.289062 394.5 L 278.550781 459.996094 Z M 261.289062 394.5 " style=" stroke:none;fill-rule:nonzero;fill:rgb(100%,59.607843%,13.333333%);fill-opacity:1;" />
<path d="M 298.488281 383.242188 C 275.375 355.769531 244.933594 335.421875 210.695312 324.609375 C 209.730469 324.414062 208.785156 324.09375 207.90625 323.644531 C 170.664062 312.171875 131.851562 306.632812 92.882812 307.242188 C 70.652344 307.261719 48.453125 308.761719 26.421875 311.746094 C 101.460938 481.4375 191.503906 517.5625 254.429688 517.5625 C 280.007812 517.398438 305.25 511.804688 328.503906 501.160156 L 276.40625 470.824219 L 216.480469 484.757812 L 214.015625 484.757812 C 208.097656 485.445312 202.75 481.191406 202.0625 475.273438 C 201.378906 469.355469 205.632812 464.007812 211.550781 463.320312 L 249.285156 454.53125 L 212.195312 433.089844 L 152.164062 447.457031 L 149.699219 447.457031 C 143.78125 448.140625 138.429688 443.886719 137.746094 437.96875 C 137.058594 432.054688 141.316406 426.703125 147.230469 426.015625 L 185.285156 417.121094 L 96.847656 365.984375 C 91.605469 363.242188 89.570312 356.765625 92.3125 351.515625 C 95.058594 346.261719 101.535156 344.234375 106.785156 346.980469 C 107.054688 347.121094 107.3125 347.269531 107.566406 347.429688 L 197.078125 399.636719 L 186.355469 359.4375 C 185.199219 353.625 188.960938 347.988281 194.773438 346.832031 C 200.078125 345.769531 205.339844 348.835938 207.046875 353.96875 L 223.125 414.855469 L 261.285156 437.152344 L 250.566406 396.742188 C 249.410156 390.929688 253.171875 385.292969 258.980469 384.132812 C 264.289062 383.074219 269.550781 386.136719 271.253906 391.273438 L 287.441406 452.480469 L 337.714844 481.855469 C 334.136719 446.371094 320.738281 412.59375 299.019531 384.304688 C 298.820312 383.960938 298.636719 383.609375 298.488281 383.242188 Z M 298.488281 383.242188 " style=" stroke:none;fill-rule:nonzero;fill:rgb(100%,59.607843%,13.333333%);fill-opacity:1;" />
<path d="M 309.636719 380.242188 L 307.921875 377.992188 L 299.132812 317.316406 L 339.542969 263.078125 L 299.023438 317.316406 L 269.652344 115.359375 L 288.304688 243.996094 L 236.53125 203.046875 L 288.304688 244.101562 L 307.277344 374.128906 L 285.839844 355.371094 C 265.546875 338.21875 242.253906 324.992188 217.125 316.351562 L 213.054688 314.957031 L 211.125 311.097656 C 174.035156 237.347656 186.683594 140.871094 248.320312 22.953125 L 254.96875 10.304688 L 265.6875 20.167969 C 300.953125 54.042969 383.601562 143.65625 386.070312 244.527344 C 387.460938 295.125 367.953125 341.863281 328.183594 383.882812 L 319.394531 393.105469 Z M 309.636719 380.242188 " style=" stroke:none;fill-rule:nonzero;fill:rgb(100%,59.607843%,13.333333%);fill-opacity:1;" />
<path d="M 257.753906 27.996094 C 197.722656 142.695312 185.179688 235.957031 220.34375 305.742188 C 246.722656 314.800781 271.183594 328.691406 292.484375 346.691406 L 289.054688 323.109375 L 241.246094 284.515625 C 236.59375 280.851562 235.8125 274.109375 239.476562 269.457031 C 243.144531 264.800781 249.886719 264.019531 254.539062 267.6875 L 284.125 291.804688 L 277.90625 248.925781 L 229.453125 210.550781 C 224.371094 207.515625 222.710938 200.933594 225.753906 195.855469 C 228.789062 190.773438 235.371094 189.113281 240.453125 192.15625 C 241.480469 192.777344 242.402344 193.558594 243.175781 194.484375 L 273.402344 218.386719 L 258.609375 116.980469 C 257.753906 111.0625 261.859375 105.5625 267.773438 104.707031 C 273.691406 103.847656 279.191406 107.953125 280.050781 113.871094 L 294.84375 215.921875 L 319.710938 182.582031 C 323.261719 177.847656 329.980469 176.878906 334.71875 180.429688 C 339.457031 183.976562 340.421875 190.699219 336.875 195.4375 L 336.863281 195.449219 L 299.238281 245.9375 L 305.5625 290.101562 L 330.539062 256.550781 C 334.117188 251.609375 341.035156 250.503906 345.976562 254.085938 C 350.917969 257.664062 352.019531 264.582031 348.441406 269.519531 L 310.601562 320.226562 L 318.425781 373.824219 L 320.246094 376.183594 C 357.765625 336.949219 376.417969 292.890625 375.132812 245.082031 C 372.238281 146.019531 287.230469 56.1875 257.753906 27.996094 Z M 257.753906 27.996094 " style=" stroke:none;fill-rule:nonzero;fill:rgb(100%,59.607843%,13.333333%);fill-opacity:1;" />
<path d="M 261.828125 2.589844 C 257.335938 -1.269531 250.570312 -0.753906 246.710938 3.734375 C 246.21875 4.304688 245.789062 4.9375 245.425781 5.589844 C 181.109375 123.507812 164.0625 221.054688 193.328125 297.484375 C 160.449219 289.5 126.714844 285.578125 92.882812 285.800781 C 64.789062 285.664062 36.746094 288 9.058594 292.769531 C 3.246094 293.90625 -0.546875 299.535156 0.589844 305.34375 C 0.726562 306.074219 0.941406 306.78125 1.230469 307.457031 C 82.058594 498.910156 183.464844 539 254.429688 539 C 290.445312 539.03125 325.789062 529.171875 356.585938 510.484375 L 357.339844 509.84375 L 358.410156 508.878906 L 359.375 507.589844 L 359.910156 506.839844 C 360.511719 505.734375 360.90625 504.546875 361.089844 503.304688 C 361.089844 503.304688 361.089844 502.765625 361.089844 502.445312 C 361.121094 501.984375 361.121094 501.511719 361.089844 501.050781 C 359.910156 463.714844 349.878906 427.195312 331.824219 394.5 C 375.777344 350.117188 397.644531 299.628906 396.140625 244.421875 C 392.820312 115.679688 267.1875 7.089844 261.828125 2.589844 Z M 337.722656 481.863281 L 287.449219 452.601562 L 271.261719 391.390625 C 269.394531 385.773438 263.339844 382.71875 257.710938 384.585938 C 252.578125 386.289062 249.511719 391.550781 250.574219 396.859375 L 261.292969 437.273438 L 223.128906 414.976562 L 207.050781 354.085938 C 205.1875 348.46875 199.128906 345.414062 193.5 347.28125 C 188.367188 348.984375 185.300781 354.25 186.363281 359.554688 L 197.082031 399.753906 L 107.574219 347.546875 C 102.578125 344.375 95.953125 345.84375 92.78125 350.839844 C 89.609375 355.835938 91.078125 362.460938 96.070312 365.632812 C 96.328125 365.792969 96.585938 365.945312 96.855469 366.082031 L 185.398438 417.75 L 147.34375 426.648438 C 141.425781 427.335938 137.171875 432.683594 137.855469 438.601562 C 138.542969 444.519531 143.894531 448.773438 149.808594 448.085938 L 152.277344 448.085938 L 212.414062 434.042969 L 249.503906 455.484375 L 211.769531 464.273438 C 205.851562 464.960938 201.597656 470.308594 202.28125 476.226562 C 202.96875 482.144531 208.320312 486.398438 214.234375 485.714844 L 216.699219 485.714844 L 276.625 471.777344 L 328.722656 502.113281 C 305.46875 512.757812 280.226562 518.355469 254.648438 518.515625 C 191.511719 517.550781 101.894531 481.425781 26.855469 311.734375 C 48.882812 308.753906 71.085938 307.253906 93.316406 307.230469 C 132.285156 306.621094 171.097656 312.160156 208.339844 323.632812 C 209.21875 324.082031 210.160156 324.402344 211.128906 324.597656 C 245.367188 335.414062 275.808594 355.757812 298.921875 383.234375 C 299.179688 383.609375 299.46875 383.972656 299.777344 384.304688 C 321.226562 412.679688 334.355469 446.457031 337.722656 481.863281 Z M 319.710938 376.0625 L 317.890625 373.703125 L 310.066406 320.105469 L 348.441406 269.507812 C 352 264.769531 351.046875 258.058594 346.308594 254.5 C 341.570312 250.941406 334.859375 251.894531 331.300781 256.632812 L 331.289062 256.644531 L 305.5625 290.089844 L 299.238281 246.355469 L 337.722656 195.863281 C 341.28125 191.125 340.328125 184.414062 335.589844 180.855469 C 330.851562 177.296875 324.140625 178.253906 320.582031 182.988281 L 320.570312 183 L 294.84375 215.910156 L 279.941406 113.324219 C 279.085938 107.40625 273.585938 103.300781 267.667969 104.15625 C 261.75 105.015625 257.644531 110.515625 258.503906 116.433594 L 273.40625 218.375 L 243.175781 194.472656 C 238.523438 190.804688 231.78125 191.585938 228.113281 196.242188 C 224.449219 200.894531 225.230469 207.636719 229.882812 211.300781 L 278.335938 249.679688 L 284.554688 292.554688 L 254.109375 267.6875 C 248.910156 264.859375 242.402344 266.785156 239.574219 271.984375 C 237.34375 276.082031 238.019531 281.152344 241.246094 284.515625 L 289.054688 323.109375 L 292.589844 347.121094 C 271.292969 329.121094 246.828125 315.226562 220.449219 306.171875 C 185.289062 236.492188 197.828125 143.125 257.859375 28.425781 C 287.230469 56.617188 372.238281 146.339844 374.917969 245.390625 C 376.097656 292.769531 357.550781 336.828125 320.035156 376.0625 Z M 319.710938 376.0625 " style=" stroke:none;fill-rule:nonzero;fill:rgb(21.568627%,27.058824%,27.843137%);fill-opacity:1;" />
</g>
</svg>