<?xml version="1.0" encoding="utf-8"?>
<!-- Generator: Adobe Illustrator 17.0.0, SVG Export Plug-In . SVG Version: 6.00 Build 0)  -->
<!DOCTYPE svg PUBLIC "-//W3C//DTD SVG 1.1//EN" "http://www.w3.org/Graphics/SVG/1.1/DTD/svg11.dtd">
<svg version="1.1" id="Capa_1" xmlns="http://www.w3.org/2000/svg" xmlns:xlink="http://www.w3.org/1999/xlink" x="0px" y="0px"
	 width="304.833px" height="449.932px" viewBox="103.583 62.067 304.833 449.932"
	 enable-background="new 103.583 62.067 304.833 449.932" xml:space="preserve">
<g>
	<path fill="none" d="M201.703,131.526c0.562-2.154,1.211-4.271,1.919-6.359c-0.079,0.204-0.128,0.331-0.128,0.331
		C202.875,126.947,202.261,129.146,201.703,131.526z"/>
	<path fill="#F4D902" d="M238.619,143.92c2.329-10.924,7.967-20.899,16.291-28.596c10.094-9.334,23.227-14.474,36.983-14.474
		c13.757,0,26.894,5.142,36.988,14.479c8.321,7.697,13.957,17.669,16.286,28.591h1.388c-3.951-29.667-23.089-54.513-49.339-66.517
		c-1.761-0.117-3.532-0.197-5.323-0.197c-39.224,0-71.785,28.727-77.303,66.714H238.619z"/>
	<path fill="#E3CA00" d="M346.553,143.92h22.636c-5.308-36.516-35.276-64.068-71.974-66.517
		C323.464,89.407,342.602,114.253,346.553,143.92z"/>
	<path fill="#FEF056" d="M287.525,116.242c-15.614,1.766-28.742,12.864-33.274,27.678h52.875
		C304.25,132.423,297.128,122.616,287.525,116.242z"/>
	<path fill="#FEE903" d="M287.525,116.242c9.603,6.374,16.725,16.181,19.601,27.678h22.407
		c-4.947-16.177-20.143-27.931-37.641-27.931C290.418,115.989,288.962,116.08,287.525,116.242z"/>
	<path fill="#F7F9F5" d="M342.537,492.196l5.497-64.072c-11.436,5.94-24.197,9.115-37.336,9.115h-43.904
		c-4.18,0-7.57-3.389-7.57-7.57h-15.137c0,4.18-3.389,7.57-7.57,7.57h-35.214c-20.36,0-39.834-7.583-54.833-21.35
		c-2.443-2.243-4.716-4.63-6.845-7.121l7.101,82.781c0.259,3.029,2.747,5.312,5.786,5.312h188.742
		C341.944,495.432,342.394,493.863,342.537,492.196z"/>
	<path fill="#ECEAE6" d="M341.254,496.861h18.234c3.039,0,5.527-2.284,5.786-5.312l7.1-82.781c-2.129,2.492-4.401,4.879-6.844,7.121
		c-5.32,4.883-11.211,8.971-17.497,12.235l-5.497,64.072C342.394,493.863,341.944,495.432,341.254,496.861z"/>
	<path fill="#FEF6AD" d="M266.794,422.1h43.904c0.774,0,1.545-0.027,2.316-0.054c22.359-11.077,38.392-33.214,40.657-59.612
		l10.437-121.659H212.512c-4.18,0-7.57-3.389-7.57-7.57c0,0,0-0.001,0-0.001h-15.137c0,0,0,0.001,0,0.001
		c0,4.18-3.389,7.57-7.57,7.57h-57.022l10.381,121.013c1.415,16.499,8.913,31.751,21.112,42.948
		c12.199,11.197,28.037,17.364,44.596,17.364h35.214c4.18,0,7.57,3.389,7.57,7.57h15.137
		C259.224,425.489,262.613,422.1,266.794,422.1z M342.055,352.801c4.492,0,8.133,3.641,8.133,8.133s-3.641,8.133-8.133,8.133
		s-8.133-3.641-8.133-8.133S337.563,352.801,342.055,352.801z M323.347,277.562c5.84,0,10.575,4.735,10.575,10.575
		c0,5.84-4.735,10.575-10.575,10.575c-5.841,0-10.575-4.735-10.575-10.575C312.772,282.296,317.507,277.562,323.347,277.562z
		 M146.59,269.341c0-4.492,3.641-8.133,8.133-8.133s8.133,3.641,8.133,8.133s-3.641,8.133-8.133,8.133
		S146.59,273.833,146.59,269.341z M162.15,371.509c-5.841,0-10.575-4.735-10.575-10.575c0-5.841,4.735-10.575,10.575-10.575
		c5.84,0,10.575,4.735,10.575,10.575C172.726,366.774,167.991,371.509,162.15,371.509z M224.595,392.512
		c-10.133-3.14-15.821-13.938-12.682-24.071l1.802-5.812l-34.566-41.301c-6.807-8.135-5.729-20.291,2.406-27.101l43.482-36.391
		c8.135-6.809,20.292-5.73,27.101,2.406l36.391,43.482c2.875,3.436,4.438,7.752,4.467,12.217l11.696,3.625
		c4.909,1.521,8.931,4.863,11.326,9.409c2.395,4.547,2.876,9.754,1.354,14.663l-16.256,52.45c-1.521,4.908-4.863,8.931-9.409,11.326
		c-2.805,1.478-5.861,2.227-8.943,2.227c-1.914,0-3.838-0.289-5.72-0.872L224.595,392.512z"/>
	<path fill="#FEF056" d="M313.014,422.046c15.714-0.547,30.651-6.636,42.28-17.31c12.197-11.196,19.694-26.445,21.111-42.94
		l10.382-121.021h-22.679l-10.437,121.659C351.406,388.833,335.373,410.969,313.014,422.046z"/>
	<path fill="#F7F9F5" d="M212.512,225.637h152.894l5.116-59.627c0.213-2.49-0.273-4.865-1.281-6.95h-244.71
		c-1.646,0-3.165,0.667-4.278,1.88c-1.113,1.212-1.649,2.784-1.508,4.424l5.17,60.273h58.321c4.18,0,7.569,3.389,7.57,7.569h15.137
		C204.943,229.025,208.332,225.637,212.512,225.637z"/>
	<path fill="#ECEAE6" d="M370.521,166.01l-5.116,59.627h22.682l5.17-60.273c0.14-1.64-0.395-3.211-1.508-4.424
		c-1.113-1.212-2.632-1.88-4.278-1.88h-18.231C370.249,161.145,370.735,163.52,370.521,166.01z"/>
	<path fill="#FEF6AD" d="M219.052,345.416l9.121-29.425c2.331-7.524,8.888-12.588,16.257-13.416
		c-1.298-3.849-3.31-7.528-6.073-10.83l-12.458-14.886l-34.625,28.978c-1.733,1.45-1.964,4.041-0.513,5.775L219.052,345.416z"/>
	<path fill="#FEF056" d="M244.43,302.574c2.555-0.287,5.206-0.073,7.814,0.735l21.874,6.78l-33.588-40.132
		c-1.451-1.734-4.042-1.963-5.775-0.513l-8.857,7.413l12.458,14.886C241.12,295.046,243.132,298.725,244.43,302.574z"/>
	<path fill="#FEF6AD" d="M229.077,378.052l35.973,11.149l7.624-24.599c5.88-18.97-4.732-39.116-23.704-44.996l-4.547-1.41
		c-0.825,0.502-1.483,1.283-1.791,2.276l-16.256,52.45C225.706,375.081,226.918,377.383,229.077,378.052z"/>
	<path fill="#FEF056" d="M248.97,319.606c18.971,5.88,29.584,26.026,23.704,44.996l-7.624,24.599l16.478,5.107
		c1.047,0.324,2.156,0.222,3.125-0.289c0.969-0.511,1.68-1.368,2.004-2.413l16.257-52.451c0.324-1.046,0.222-2.156-0.289-3.125
		c-0.511-0.969-1.368-1.68-2.413-2.004l-52.451-16.257c-0.403-0.124-0.81-0.184-1.211-0.184c-0.762,0-1.493,0.225-2.128,0.611
		L248.97,319.606z"/>
	<circle fill="#F4D902" cx="342.055" cy="360.933" r="8.133"/>
	<circle fill="#F4D902" cx="154.722" cy="269.341" r="8.133"/>
	<circle fill="#F4D902" cx="323.347" cy="288.137" r="10.575"/>
	<circle fill="#F4D902" cx="162.15" cy="360.933" r="10.575"/>
	<path d="M282.765,409.642c3.082,0,6.138-0.75,8.943-2.227c4.547-2.395,7.888-6.418,9.409-11.326l16.256-52.45
		c1.522-4.909,1.041-10.116-1.354-14.663c-2.395-4.547-6.417-7.888-11.326-9.409l-11.696-3.625
		c-0.029-4.465-1.592-8.782-4.467-12.217l-36.391-43.482c-6.809-8.136-18.966-9.215-27.101-2.406l-43.482,36.391
		c-8.135,6.81-9.214,18.966-2.406,27.101l34.566,41.301l-1.802,5.812c-3.14,10.133,2.548,20.931,12.682,24.071l52.451,16.257
		C278.927,409.353,280.852,409.642,282.765,409.642z M191.273,305.836l34.625-28.978l8.857-7.413
		c1.733-1.45,4.324-1.221,5.775,0.513l33.588,40.132l-21.874-6.78c-2.609-0.808-5.259-1.022-7.814-0.735
		c-7.369,0.828-13.925,5.893-16.257,13.416l-9.121,29.425l-28.292-33.805C189.309,309.877,189.54,307.287,191.273,305.836z
		 M226.375,372.922l16.256-52.45c0.308-0.992,0.966-1.774,1.791-2.276c0.635-0.386,1.367-0.611,2.128-0.611
		c0.401,0,0.808,0.06,1.211,0.184l52.451,16.257c1.046,0.324,1.903,1.036,2.413,2.004c0.511,0.969,0.613,2.079,0.289,3.125
		l-16.257,52.451c-0.324,1.046-1.036,1.902-2.004,2.413c-0.969,0.511-2.078,0.613-3.125,0.289l-16.478-5.107l-35.973-11.149
		C226.918,377.383,225.706,375.081,226.375,372.922z"/>
	<path d="M402.902,150.702c-3.956-4.311-9.581-6.782-15.432-6.782h-3.027c-2.706-22.13-13.239-42.535-29.838-57.622
		c-17.192-15.625-39.464-24.231-62.713-24.231c-10.053,0-31.33,8.695-55.445,20.415c-20.558,12.478-31.579,39.489-32.825,42.685
		c-0.708,2.088-1.357,4.205-1.919,6.359c-1.34,5.71-2.361,12.47-2.361,12.47H122.82l0,0c-5.226,0.431-10.154,2.816-13.723,6.705
		c-3.956,4.311-5.939,10.125-5.438,15.955l16.851,196.425l11.132,129.761c0.937,10.921,9.909,19.157,20.87,19.157h206.975
		c10.961,0,19.933-8.236,20.87-19.156l11.131-129.754c0-0.002,0.001-0.005,0.001-0.007c0-0.001,0-0.002,0-0.003l16.851-196.421
		C408.84,160.827,406.858,155.013,402.902,150.702z M146.727,491.549l-7.101-82.781c2.129,2.492,4.401,4.879,6.845,7.121
		c14.999,13.767,34.473,21.35,54.833,21.35h35.214c4.18,0,7.57-3.389,7.57-7.57s-3.389-7.57-7.57-7.57h-35.214
		c-16.559,0-32.397-6.167-44.596-17.364c-12.199-11.198-19.697-26.45-21.112-42.948l-10.381-121.013h57.022
		c4.18,0,7.57-3.389,7.57-7.57c0,0,0-0.001,0-0.001c0-4.18-3.389-7.569-7.57-7.569h-58.321l-5.17-60.273
		c-0.141-1.64,0.395-3.212,1.508-4.424c1.113-1.213,2.632-1.88,4.278-1.88h244.71h18.231c1.646,0,3.165,0.668,4.278,1.88
		c1.113,1.212,1.648,2.784,1.508,4.424l-5.17,60.273h-22.682H212.512c-4.18,0-7.569,3.389-7.569,7.569c0,0,0,0.001,0,0.001
		c0,4.18,3.389,7.57,7.57,7.57h151.595h22.679l-10.382,121.021c-1.417,16.495-8.914,31.745-21.111,42.94
		c-11.629,10.673-26.565,16.762-42.28,17.31c-0.771,0.027-1.542,0.054-2.316,0.054h-43.904c-4.18,0-7.57,3.389-7.57,7.57
		c0,4.18,3.389,7.57,7.57,7.57h43.904c13.139,0,25.9-3.175,37.336-9.115c6.285-3.265,12.177-7.352,17.497-12.235
		c2.443-2.243,4.715-4.63,6.844-7.121l-7.1,82.781c-0.259,3.028-2.747,5.312-5.786,5.312h-18.234H152.513
		C149.474,496.861,146.986,494.578,146.727,491.549z M291.892,77.206c1.79,0,3.561,0.08,5.323,0.197
		c36.699,2.449,66.666,30,71.974,66.517h-22.636h-1.388c-2.328-10.921-7.964-20.894-16.286-28.591
		c-10.094-9.337-23.23-14.479-36.988-14.479c-13.755,0-26.889,5.14-36.983,14.474c-8.323,7.697-13.961,17.671-16.291,28.596h-24.03
		C220.107,105.933,252.668,77.206,291.892,77.206z M329.533,143.92h-22.407h-52.875c4.531-14.813,17.659-25.911,33.274-27.678
		c1.437-0.163,2.893-0.253,4.367-0.253C309.39,115.989,324.586,127.743,329.533,143.92z"/>
</g>
<path d="M289.833,62.067c0,0-37.591,2.662-61.045,26.047l9.545,2.719c0,0,59.167-27,75.667-21.167L289.833,62.067z"/>
</svg>
