<svg id="Capa_1" enable-background="new 0 0 511.987 511.987" height="512" viewBox="0 0 511.987 511.987" width="512" xmlns="http://www.w3.org/2000/svg"><g><g id="_x3C_Group_x3E__14_"><path d="m258.18 124.875c-8.939 8.953-18.23 15.154-27.099 18.895-16.7 7.044-36.362-3.088-37.579-4.566-1.787-2.17-10.195-37.127 15.574-62.936 20.503-20.534 55.932-29.81 70.857-31.209 3.247-.304 5.963 2.416 5.659 5.668-1.397 14.947-6.91 53.613-27.412 74.148z" fill="#daf1a1"/><path d="m213.719 135.075c-14.437-14.459-12.59-39.753 13.18-65.562 13.923-13.945 36.19-20.962 53.726-24.47-.227-.008-.457-.007-.691.015-14.925 1.399-53.532 6.92-74.035 27.455-25.769 25.809-29.004 54.529-14.567 68.989 9.248 9.263 24.326 8.39 39.744 2.256-6.707-.961-12.618-3.937-17.357-8.683z" fill="#c9eb74"/><path d="m181.687 195.993c-.252 0-.506-.006-.761-.018-8.588-.414-5.216-7.723-4.803-16.325.937-19.525-.986-38.97-5.716-57.794-3.449-13.724-8.407-27.13-14.736-39.846-3.837-7.707-1.957-18.466-.936-18.976.681-.34 5.354-3.994 8.896-3.043 4.158 1.116 7.836 3.944 9.907 8.106 7.328 14.722 13.07 30.248 17.065 46.147 3.567 14.196 5.756 28.691 6.55 43.314l-9.928 23.59c-.4 8.347 2.716 14.845-5.538 14.845z" fill="#f2d1a5"/><path d="m197.144 157.558c-1.193.448-2.821.853-4.582 1.209-5.874 1.186-11.394-3.11-11.886-9.082-.885-10.74-2.643-21.38-5.269-31.83-3.449-13.724-8.407-27.13-14.736-39.846-3.071-6.17-1.67-13.393 2.956-18.003-3.734-1.003-7.85-.642-11.54 1.392-7.341 4.047-10.006 13.37-6.282 20.881 6.265 12.636 11.177 25.95 14.602 39.577 4.73 18.825 6.653 38.269 5.716 57.794-.393 8.195 16.74 13.171 17.081 13.043.354-.133 13.827-7.494 14.022-11.544.378-7.883.344-15.755-.082-23.591z" fill="#f2bb88"/><path d="m324.608 360.054c12.971-29.286 35.237-76.851 25.72-109.39-.07-.239-.141-.478-.212-.717-12.974-43.355-53.411-88.062-88.051-88.258-6.196-.035-12.811 1.285-26.041 3.924-36.355 7.253-36.745 14.72-54.35 14.785-17.736.065-18.285-7.509-55.148-14.811-13.251-2.625-19.876-3.937-25.954-3.898-5.811.038-11.776 1.318-17.742 3.626-11.888 4.6-14.797 10.441-25.478 21.504l-17.407 21.744c-8.061 12.13-14.516 25.409-18.442 38.543-19.501 65.24 18.725 128.146 59.558 167.955l14.811 15.24c17.434 13.603 32.672 21.256 40.205 20.698 13.917-1.031 22.844-3.44 22.844-3.44 12.602-3.401 14.638-6.612 22.753-6.585 8.082.027 10.029 3.225 22.541 6.613 0 0 8.944 2.422 22.752 3.412 16.204 1.161 60.99-30.799 93.555-83.541z" fill="#df646e"/><path d="m350.321 250.666-41.26 41.347c-2.392 2.397-3.409 5.843-2.7 9.154 1.314 6.144-3.978 11.68-10.175 10.645l-.982-.164c-3.19-.533-6.441.51-8.726 2.8l-53.198 53.313-3.115 3.122s.001.001.001.001l-.031.031c.01-.01.019-.022.029-.032l-.472.476-.265.266-.01.012-9.947 10.025c-15.423 16.268-7.793 34.796 2.07 46.609.645.773.052 1.943-.951 1.859-10.132-.849-16.373-3.094-16.373-3.094-12.512-3.388-14.459-6.586-22.541-6.613-8.115-.027-10.151 3.184-22.753 6.585 0 0-.098.026-.29.075-9.894 2.499-21.075 1.986-29.427-3.879-8-5.617-24.426-21.021-24.426-21.021-40.833-39.81-81.759-106.996-62.257-172.236 3.926-13.134 10.381-26.413 18.442-38.543l17.407-21.744c1.424-1.475 2.87-2.905 4.334-4.291-11.846 4.612-23.691 13.267-34.334 24.291l-17.407 21.744c-8.061 12.13-14.766 25.337-18.442 38.543-28.85 103.639 83.35 188.354 83.35 188.354 17.434 13.603 32.672 21.256 40.205 20.698 13.917-1.031 22.844-3.44 22.844-3.44 12.602-3.401 14.638-6.612 22.753-6.585 8.082.027 10.029 3.225 22.541 6.613 0 0 8.943 2.442 22.752 3.412.928.065 11.726 2.001 44.103-23.968.01-.008.02-.016.03-.024 18.272-14.983 38.424-36.122 54.417-60.923.832-1.281 1.655-2.572 2.464-3.882l13.38-25.248c12.97-29.285 18.476-61.749 8.96-94.288z" fill="#dc4955"/><path d="m251.417 390.108c-9.585 9.591-15.66 35.649 14.34 55.351 14.959 9.824 57.908 20.678 117.957 6.511l20.681-4.085c23.219-8.955 54.576-18.602 70.539-38.194 4.634-5.688 8.812-11.888 12.446-18.635 21.359-39.666 24.319-99.644.05-124.203-4.341-4.393-9.93-8.128-21.109-15.597-16.307-10.896-25.515-14.604-32.428-17.535-11.313-4.797-24.405-2.233-33.093 6.461l-14.781 14.799 21.825 58.606-79.915 91.66-72.762-19.362-.739.74z" fill="#ffe07d"/><path d="m264.812 430.751c-15.155-11.54-19.233-35.277-9.648-44.868l-10.694 10.778c-20.968 22.117.673 48.412 12.606 56.33 26.936 17.872 152.809 33.191 218.362-43.947-21.383 24.032-155.936 63.351-210.626 21.707z" fill="#ffd064"/><path d="m385.119 257.735c36.131 36.151 9.076 106.011-5.872 119.936-18.638 17.362-84.189 44.641-120.319 8.489l-.648-3.4 56.84-56.962 9.745 24.809 31.404-32.17-26.043-7.58 52.648-52.759z" fill="#ffe07d"/><path d="m386.001 254.964-3.128 3.135c17.896 34.819 19.522 81.871-9.755 111.488-28.996 29.333-80.04 31.085-114.84 13.175l-3.115 3.122c36.131 36.151 94.709 36.151 130.839-.002s36.13-94.767-.001-130.918z" fill="#ffd064"/><path d="m351.795 300.48-21.165 9.979-.515.51c-1.344 1.329-1.674 3.306-1.039 5.086.383 1.074.497 2.276.263 3.525-.495 2.638-2.628 4.761-5.267 5.251-1.261.234-2.473.111-3.553-.285-1.789-.655-3.785-.343-5.139.997l-.26.257-10.22 20.741c6.339 4.851 12.076 7.567 20.818 7.074 18.206-1.026 32.831-17.304 32.717-35.539-.048-7.44-1.966-11.849-6.64-17.596z" fill="#f2bb88"/><path d="m363.597 335.103c-4.228-4.228-19.37-9.576-29.732-12.881-4.356-1.389-8.47 2.726-7.081 7.081 3.305 10.362 8.653 25.504 12.881 29.732 6.609 6.609 17.324 6.609 23.933 0 6.608-6.608 6.608-17.323-.001-23.932z" fill="#f2d1a5"/><path d="m349.664 344.036c-2.983-2.983-6.524-11.401-9.511-19.74-2.196-.75-4.328-1.449-6.288-2.074-4.356-1.389-8.47 2.726-7.081 7.081 3.305 10.362 8.653 25.504 12.881 29.732 6.609 6.609 17.324 6.609 23.933 0 3.193-3.193 4.829-7.346 4.936-11.53-6.22 2.779-13.766 1.634-18.87-3.469z" fill="#f2bb88"/><path d="m362.068 297.602c-5.979 0-20.468 6.925-30.132 11.916-4.062 2.098-4.062 7.917 0 10.014 9.664 4.99 24.153 11.916 30.132 11.916 9.346 0 16.923-7.577 16.923-16.923s-7.577-16.923-16.923-16.923z" fill="#f2d1a5"/><path d="m376.063 305.013c-2.281 6.649-8.573 11.435-15.995 11.435-4.845 0-15.276-4.547-24.202-8.928-1.37.685-2.691 1.357-3.93 1.997-4.062 2.098-4.062 7.917 0 10.014 9.664 4.99 24.153 11.916 30.132 11.916 9.346 0 16.923-7.577 16.923-16.923 0-3.526-1.081-6.8-2.928-9.511z" fill="#f2bb88"/><path d="m335.865 357.507c0-5.979-6.925-20.468-11.916-30.132-2.098-4.062-7.917-4.062-10.014 0-4.99 9.664-11.916 24.153-11.916 30.132 0 9.346 7.577 16.923 16.923 16.923s16.923-7.577 16.923-16.923z" fill="#f2d1a5"/><path d="m333.942 359.43c-9.346 0-16.923-7.577-16.923-16.923 0-3.558 2.458-10.132 5.496-16.908-2.619-2.152-6.855-1.564-8.58 1.776-4.99 9.664-11.916 24.153-11.916 30.132 0 9.346 7.577 16.923 16.923 16.923 8.73 0 15.912-6.612 16.822-15.101-.599.064-1.206.101-1.822.101z" fill="#f2bb88"/></g><path d="m505.959 283.143c-1.438-3.884-5.752-5.871-9.637-4.43-3.885 1.438-5.868 5.752-4.43 9.637 9.817 26.524 5.038 69.149-11.117 99.15-13.77 25.571-36.938 44.805-68.858 57.169-31.825 13.413-90.849 17.121-109.364 13.516-26.444-2.602-40.619-8.56-43.342-11.704-7.707-8.971-12.81-17.072-12.972-17.574-5.008-8.805-3.476-19.987 3.73-27.197l5.403-5.414c12.425 10.704 27.245 18.185 43.275 21.775.552.124 1.103.183 1.646.183 3.434 0 6.53-2.372 7.312-5.862.905-4.042-1.638-8.053-5.68-8.958-13.253-2.968-25.532-9.078-35.918-17.794l28.515-28.573c-.002.159-.002.307-.002.439 0 13.467 10.956 24.423 24.423 24.423 9.375 0 17.529-5.313 21.621-13.084 3.387 1.726 7.156 2.646 11.068 2.646 6.523 0 12.657-2.54 17.271-7.153 7.621-7.622 9.125-19.064 4.546-28.213 7.749-4.099 13.044-12.241 13.044-21.601 0-13.467-10.956-24.423-24.423-24.423-.156 0-.329 0-.522.004l24.227-24.263c27.958 33.389 26.277 83.365-5.074 114.737-12.723 12.729-28.802 20.968-46.501 23.825-4.089.66-6.869 4.51-6.209 8.6.595 3.685 3.779 6.306 7.396 6.306.396 0 .8-.032 1.204-.097 20.832-3.363 39.754-13.056 54.72-28.03 37.203-37.226 38.907-96.734 5.113-136.004l9.682-9.696c6.567-6.571 16.325-8.475 24.861-4.858 7.187 3.037 15.578 6.495 31.189 16.867 4.303 2.875 7.702 5.146 10.533 7.121 3.397 2.37 8.072 1.536 10.442-1.86 2.37-3.397 1.537-8.072-1.86-10.442-2.955-2.061-6.409-4.369-10.782-7.291-16.12-10.755-25.961-14.975-33.667-18.204-14.193-6.019-30.415-2.853-41.329 8.066l-14.709 14.73c-.021.021-.045.039-.067.06-.022.022-.041.047-.063.07l-18.997 19.025c-.867-7.115-2.306-14.128-4.353-20.969-13.195-44.095-55.535-93.383-95.194-93.608-6.963-.038-13.841 1.334-27.55 4.07-14.093 2.812-23.04 5.682-29.6 8.146-.067-4.397-.252-8.786-.562-13.164 3.333.908 6.916 1.417 10.721 1.417 13.841 0 30.556-6.641 48.371-24.483 4.508-4.515 8.617-10.059 12.212-16.477 2.023-3.614.735-8.185-2.879-10.208-3.611-2.024-8.184-.737-10.209 2.878-2.924 5.22-6.2 9.664-9.739 13.208-16.287 16.312-33.049 23.038-45.696 18.874l34.351-41.346c2.647-3.186 2.21-7.915-.976-10.562-3.185-2.646-7.915-2.21-10.562.976l-29.671 35.713c-.731-3.622-1.539-7.229-2.44-10.814-.973-3.871-2.054-7.718-3.225-11.54 3.319-7.624 8.872-15.371 16.553-23.064 17.848-17.875 52.652-23.445 66.637-25-.638 5.852-1.792 13.876-3.859 22.671-.948 4.032 1.553 8.069 5.585 9.017 4.023.946 8.069-1.552 9.017-5.584 2.614-11.12 3.876-21.088 4.475-27.493.353-3.782-.983-7.49-3.667-10.172-2.68-2.679-6.373-4.018-10.16-3.66-16.276 1.526-56.521 7.468-78.642 29.623-4.898 4.906-9.084 9.893-12.544 14.926-2.363-5.895-4.964-11.698-7.794-17.384-2.749-5.525-7.483-9.646-13.332-11.603-5.842-1.955-12.098-1.518-17.612 1.235-11.379 5.681-16.024 19.571-10.353 30.964 6.088 12.231 10.858 25.128 14.177 38.332 3.535 14.069 5.438 28.508 5.689 43.056-6.739-2.548-15.972-5.563-30.845-8.509-13.727-2.719-20.609-4.068-27.455-4.04-10.14.066-20.808 3.293-31.706 9.592-3.586 2.073-4.813 6.66-2.741 10.247 2.072 3.586 6.66 4.812 10.247 2.741 8.618-4.981 16.792-7.531 24.297-7.58 5.305-.031 11.709 1.232 24.449 3.755 17.943 3.555 26.643 7.052 33.632 9.861 5.904 2.468 13.334 5.166 23 5.093 10.125-.037 15.647-2.282 22.638-5.125 6.862-2.791 15.403-6.263 33.152-9.804 12.567-2.507 18.948-3.78 24.34-3.78h.19c14.063.08 31.121 9.431 46.8 25.656 15.629 16.173 28.061 37.041 34.108 57.252 2.969 9.921 4.523 20.253 4.664 30.75l-22.049 22.081c-.34.317-.657.656-.959 1.005-.037.044-.078.086-.114.131-1.959 2.324-3.083 5.295-3.083 8.46 0 .879.09 1.742.257 2.582-.878-.183-1.783-.278-2.704-.278-3.475 0-6.717 1.354-9.123 3.682-.024.024-.051.043-.074.067l-70.39 70.532c-11.959 11.966-14.49 30.558-6.157 45.21.393.693 2.271 3.96 7.18 10.673-7.048 3.68-11.281 4.644-12.875 4.525-12.809-.918-21.255-3.15-21.329-3.17-9.458-2.306-13.157-6.354-24.476-6.874-20.192 2.287-19.187 8.561-46.177 10.045-3.859.289-16.304-4.545-34.87-19.001l-20.498-17.964c-19.992-19.527-82.629-88.253-60.447-162.459 3.598-12.038 9.585-24.571 17.321-36.266l14.642-18.291c2.589-3.233 2.066-7.953-1.168-10.542s-7.954-2.066-10.542 1.168l-14.852 18.553c-8.153 11.906-15.822 27.7-19.773 41.082-9.392 31.421-6.375 64.988 8.968 99.769 15.184 34.42 38.573 61.341 55.521 77.864.095.093.193.183.292.271l20.812 18.239c9.039 7.038 31.067 23.238 45.702 22.537 26.921-1.889 26.074-5.894 45.019-10.004 6.522.26 11.573 4.162 20.606 6.353.394.107 9.81 2.624 24.176 3.653 5.931.419 13.957-2.214 23.902-7.824 11.767 9.644 38.964 13.297 50.751 14.456 37.891 4.082 79.965-1.289 115.987-14.355 35.483-13.686 61.36-35.268 76.911-64.147 18.281-33.952 23.318-80.831 11.976-111.471zm-324.313-110.244c-3.114.018-5.544-.236-7.81-.732.18-17.614-1.88-35.125-6.155-52.14-3.582-14.248-8.728-28.164-15.296-41.359-1.99-3.998-.364-8.869 3.624-10.859 1.926-.962 4.11-1.115 6.151-.432 2.045.685 3.701 2.127 4.664 4.062 7.088 14.241 12.641 29.257 16.505 44.633 4.583 18.241 6.809 37.022 6.646 55.903-2.409.593-4.962.911-8.329.924zm137.296 194.031c-5.195 0-9.423-4.227-9.423-9.423 0-1.815 2.034-8.742 9.423-23.44 7.389 14.696 9.423 21.625 9.423 23.44 0 5.196-4.228 9.423-9.423 9.423zm39.352-13.198c-1.78 1.78-4.146 2.76-6.664 2.76-2.517 0-4.883-.98-6.663-2.76-1.283-1.283-4.744-7.621-9.911-23.237 3.319 1.098 6.195 2.115 8.717 3.054 2.88 1.256 5.304 2.215 7.362 2.955 4.288 1.882 6.468 3.211 7.158 3.903 3.674 3.673 3.674 9.651.001 13.325zm13.197-39.207c0 5.196-4.228 9.423-9.423 9.423-.775 0-2.493-.377-5.342-1.378-2.048-.89-4.453-1.863-7.275-2.92-3.01-1.32-6.584-2.994-10.824-5.125 14.696-7.388 21.625-9.423 23.44-9.423 5.196 0 9.424 4.227 9.424 9.423z"/></g></svg>