<?xml version="1.0" encoding="utf-8"?>
<!-- Generator: Adobe Illustrator 17.0.0, SVG Export Plug-In . SVG Version: 6.00 Build 0)  -->
<!DOCTYPE svg PUBLIC "-//W3C//DTD SVG 1.1//EN" "http://www.w3.org/Graphics/SVG/1.1/DTD/svg11.dtd">
<svg version="1.1" id="Layer_1" xmlns="http://www.w3.org/2000/svg" xmlns:xlink="http://www.w3.org/1999/xlink" x="0px" y="0px"
	 width="512px" height="512px" viewBox="0 0 512 512" enable-background="new 0 0 512 512" xml:space="preserve">
<path fill="#F4BC3D" d="M490.867,384.059l-100.66-100.66c-15.133-15.133-15.133-39.664,0-54.797l100.66-100.66
	c18.176-18.172,18.176-47.637,0-65.809l-41.004-41.004c-18.172-18.172-47.641-18.172-65.813,0l-100.664,100.66
	c-15.133,15.133-39.668,15.133-54.801,0L127.922,21.129c-18.172-18.172-47.637-18.172-65.813,0L21.105,62.133
	c-18.176,18.172-18.176,47.637,0,65.809l100.664,100.66c15.129,15.133,15.129,39.664,0,54.797L21.105,384.059
	c-18.172,18.172-18.172,47.637,0,65.809l41.004,41.004c18.176,18.172,47.641,18.172,65.816,0l100.66-100.66
	c15.137-15.133,39.668-15.133,54.801,0l100.664,100.66c18.176,18.172,47.641,18.172,65.813,0l41.004-41.004
	C509.043,431.695,509.043,402.23,490.867,384.059z"/>
<path fill="#DDA12A" d="M145.676,38.883l-17.754-17.754c-18.172-18.172-47.637-18.172-65.813,0L21.105,62.133
	c-18.176,18.172-18.176,47.637,0,65.809l100.664,100.66c15.129,15.133,15.129,39.664,0,54.797L21.105,384.059
	c-18.176,18.172-18.176,47.637,0,65.809l25.277,25.277c0.02-38.824,26.129-62.879,26.129-62.879l135.441-135.438
	c20.66-20.656,20.66-54.152,0-74.813l-79.113-79.109c-17.918-17.918-18.324-46.836-0.914-65.25L145.676,38.883z"/>
<path d="M416.957,512c-14.434,0-28.004-5.621-38.211-15.828c-2.93-2.93-2.93-7.676,0-10.605s7.68-2.93,10.609,0
	c15.219,15.219,39.984,15.219,55.207,0l41.004-41.004c15.219-15.219,15.219-39.984,0-55.203L384.902,288.703
	c-18.035-18.031-18.035-47.375,0-65.402l100.664-100.66C492.938,115.266,497,105.465,497,95.039s-4.063-20.23-11.434-27.602
	l-41.004-41.004c-15.223-15.219-39.988-15.219-55.207,0L288.691,127.09c-8.734,8.734-20.352,13.547-32.703,13.547
	c-12.355,0-23.969-4.813-32.703-13.547l-33.906-33.902c-2.93-2.926-2.93-7.676,0-10.605s7.68-2.93,10.609,0l33.902,33.902
	c12.184,12.188,32.008,12.188,44.191,0L378.746,15.828C388.953,5.621,402.523,0,416.957,0s28.004,5.621,38.211,15.828l41.004,41
	C506.379,67.035,512,80.605,512,95.039s-5.621,28-15.828,38.207l-100.664,100.66c-12.184,12.184-12.184,32.004,0,44.188
	l100.664,100.66c21.07,21.066,21.07,55.348,0,76.418l-41.004,41C444.961,506.379,431.391,512,416.957,512z"/>
<path d="M95.016,511.973c-13.836,0-27.676-5.266-38.207-15.801l-41.008-41c-21.066-21.07-21.066-55.352,0-76.418l100.664-100.66
	c12.184-12.184,12.184-32.004,0-44.188L15.801,133.246c-21.066-21.066-21.066-55.348,0-76.418l41.008-41
	c21.066-21.07,55.348-21.07,76.418,0l44.945,44.941c2.93,2.93,2.93,7.68,0,10.609c-2.926,2.926-7.676,2.926-10.605,0l-44.945-44.945
	c-15.219-15.219-39.984-15.219-55.207,0L26.41,67.438c-7.375,7.371-11.434,17.176-11.434,27.602s4.059,20.227,11.434,27.602
	l100.66,100.656c18.035,18.031,18.035,47.375,0,65.402L26.41,389.359c-15.223,15.219-15.223,39.984,0,55.203l41.004,41.004
	c15.219,15.219,39.984,15.219,55.207,0L223.285,384.91c18.031-18.031,47.371-18.031,65.406,0l77.125,77.121
	c2.93,2.93,2.93,7.68,0,10.605c-2.93,2.93-7.676,2.93-10.605,0l-77.129-77.121c-12.184-12.184-32.008-12.184-44.191,0
	L133.227,496.172C122.691,506.707,108.855,511.973,95.016,511.973z"/>
</svg>
