<?xml version="1.0" encoding="utf-8"?>
<!-- Generator: Adobe Illustrator 17.0.0, SVG Export Plug-In . SVG Version: 6.00 Build 0)  -->
<!DOCTYPE svg PUBLIC "-//W3C//DTD SVG 1.1//EN" "http://www.w3.org/Graphics/SVG/1.1/DTD/svg11.dtd">
<svg version="1.1" id="Layer_1" xmlns="http://www.w3.org/2000/svg" xmlns:xlink="http://www.w3.org/1999/xlink" x="0px" y="0px"
	 width="248.11px" height="275.187px" viewBox="333.04 426.813 248.11 275.187"
	 enable-background="new 333.04 426.813 248.11 275.187" xml:space="preserve">
<rect x="342.707" y="436.482" fill="#E6E7E8" width="228.785" height="255.867"/>
<rect x="534.128" y="436.482" fill="#C9C9C9" width="37.364" height="255.867"/>
<polygon fill="#904F15" points="444.573,495.818 430.524,549.01 369.765,532.965 379.575,495.818 342.704,495.818 342.704,650.398 
	571.487,650.398 571.487,495.818 "/>
<polygon fill="#7C4111" points="444.573,495.818 444.573,495.818 534.123,495.818 534.123,650.398 571.487,650.398 571.487,495.818 
	"/>
<rect x="404.694" y="556.073" transform="matrix(0.866 0.5 -0.5 0.866 352.1838 -139.3489)" fill="#E6E7E8" width="62.84" height="62.84"/>
<g>
	<rect x="478.069" y="521.118" fill="#C9C9C9" width="62.842" height="62.842"/>
	
		<rect x="376.763" y="479.164" transform="matrix(0.9669 0.2553 -0.2553 0.9669 143.8736 -87.2875)" fill="#C9C9C9" width="62.847" height="62.847"/>
</g>
<path d="M571.488,702H342.703c-5.338,0-9.663-4.325-9.663-9.663v-41.939c0-5.338,4.325-9.663,9.663-9.663h228.784
	c5.338,0,9.663,4.325,9.663,9.663v41.938C581.151,697.675,576.824,702,571.488,702z M352.366,682.674h209.457v-22.612H352.366
	V682.674z"/>
<path d="M571.488,426.813H342.703c-5.338,0-9.663,4.325-9.663,9.663v59.342v154.58v41.938c0,5.338,4.325,9.663,9.663,9.663h228.784
	c5.338,0,9.663-4.325,9.663-9.663v-41.938v-154.58v-59.342C581.151,431.137,576.824,426.813,571.488,426.813z M561.826,682.674
	H352.366v-22.612h209.457v22.612H561.826z M561.826,486.154h-27.701c-5.338,0-9.663,4.325-9.663,9.663
	c0,5.338,4.325,9.663,9.663,9.663h27.701v135.254H352.366V505.481h14.662l-6.605,25.016c-0.084,0.314-0.149,0.63-0.2,0.948
	c-0.03,0.189-0.044,0.378-0.063,0.567c-0.013,0.127-0.033,0.251-0.039,0.378c-0.016,0.244-0.013,0.485-0.01,0.728
	c0.001,0.072-0.004,0.145-0.001,0.215c0.01,0.253,0.035,0.503,0.065,0.754c0.006,0.062,0.01,0.126,0.017,0.186
	c0.033,0.243,0.081,0.481,0.133,0.717c0.016,0.07,0.024,0.142,0.041,0.212c0.051,0.218,0.118,0.43,0.185,0.644
	c0.028,0.088,0.049,0.178,0.079,0.267c0.069,0.201,0.153,0.396,0.235,0.592c0.039,0.096,0.072,0.192,0.116,0.286
	c0.118,0.259,0.251,0.51,0.392,0.757c0.016,0.026,0.026,0.054,0.042,0.08c0.016,0.026,0.033,0.049,0.049,0.077
	c0.146,0.245,0.299,0.484,0.465,0.716c0.047,0.065,0.1,0.123,0.149,0.188c0.143,0.188,0.287,0.377,0.443,0.553
	c0.039,0.045,0.084,0.085,0.126,0.13c0.172,0.188,0.349,0.374,0.535,0.549c0.03,0.029,0.063,0.053,0.094,0.08
	c0.202,0.184,0.411,0.363,0.63,0.531c0.019,0.016,0.042,0.029,0.062,0.043c0.231,0.172,0.467,0.338,0.715,0.492
	c0.023,0.014,0.048,0.026,0.07,0.039c0.244,0.148,0.495,0.288,0.754,0.416c0.065,0.032,0.133,0.055,0.198,0.086
	c0.22,0.102,0.441,0.203,0.672,0.288c0.3,0.112,0.607,0.212,0.92,0.294l41.196,10.88l-23.656,40.975
	c-2.668,4.621-1.085,10.532,3.537,13.2l54.423,31.422c1.482,0.856,3.148,1.295,4.831,1.295c0.838,0,1.679-0.109,2.502-0.33
	c2.476-0.663,4.585-2.282,5.868-4.502l24.027-41.617h60.883c5.338,0,9.663-4.325,9.663-9.663v-62.842
	c0-5.338-4.325-9.663-9.663-9.663h-62.841c-5.338,0-9.663,4.325-9.663,9.663v37.564l-26.412-15.249l10.024-37.958h36.061
	c5.338,0,9.663-4.325,9.663-9.663c0-5.338-4.325-9.663-9.663-9.663h-32.077c-0.761-3.411-3.347-6.291-6.96-7.246l-60.759-16.046
	c-5.163-1.367-10.448,1.715-11.81,6.875l-4.335,16.418h-19.77v-40.015h209.457v40.012h0.002V486.154z M424.25,534.924
	c-1.554,0.062-3.071,0.495-4.423,1.267l-38.254-10.102l7.343-27.804c0.001-0.001,0.001-0.004,0.001-0.005l3.768-14.265
	l42.075,11.112L424.25,534.924z M465.848,579.528l-21.757,37.686l-37.686-21.758l21.452-37.156l0.201,0.053
	c0.366,0.097,0.738,0.165,1.108,0.218c0.127,0.018,0.251,0.029,0.378,0.043c0.031,0.004,0.062,0.007,0.093,0.011L465.848,579.528z
	 M487.728,571.743v-40.956h43.515v43.517h-42.685C488.402,573.417,488.124,572.554,487.728,571.743z"/>
</svg>
