<?xml version="1.0" encoding="utf-8"?>
<!-- Generator: Adobe Illustrator 17.0.0, SVG Export Plug-In . SVG Version: 6.00 Build 0)  -->
<!DOCTYPE svg PUBLIC "-//W3C//DTD SVG 1.1//EN" "http://www.w3.org/Graphics/SVG/1.1/DTD/svg11.dtd">
<svg version="1.1" id="Layer_1" xmlns="http://www.w3.org/2000/svg" xmlns:xlink="http://www.w3.org/1999/xlink" x="0px" y="0px"
	 width="512px" height="512px" viewBox="0 0 512 512" enable-background="new 0 0 512 512" xml:space="preserve">
<path fill="#EFEFEF" d="M389.931,55.666C291.584,57.5,223.076,7.808,175.687,8.704C128.299,9.6,29.255,38.699,33.337,256.74
	s138.581,247.524,190.72,246.556C468.153,498.731,564.124,52.409,389.931,55.666z"/>
<path fill="#F3F3F1" d="M398.222,96h-160c-15.716,0-28.444,12.729-28.444,28.444v21.333v177.778v21.333
	c0,15.716,12.729,28.444,28.444,28.444h56.889h103.111V96z"/>
<path fill="#D5DBE1" d="M241.778,344.889v-21.333V145.778v-21.333c0-15.716,12.729-28.444,28.444-28.444h-32
	c-15.716,0-28.444,12.729-28.444,28.444v21.333v177.778v21.333c0,15.716,12.729,28.444,28.444,28.444h32
	C254.507,373.333,241.778,360.604,241.778,344.889z"/>
<path fill="#FFD984" d="M295.111,142.222v256c0,9.813,7.964,17.778,17.778,17.778c1.991,0,3.84-0.284,5.689-0.853l85.333-28.444
	C410.88,384.284,416,377.6,416,369.778v-256C416,103.964,408.036,96,398.222,96c-1.991,0-3.84,0.284-5.689,0.853L307.2,125.298
	C300.231,127.716,295.111,134.4,295.111,142.222z"/>
<path fill="#DBAD52" d="M327.111,394.667v-256c0-7.822,5.12-14.507,12.089-16.924l68.281-22.756
	C404.75,97.252,401.692,96,398.222,96c-1.991,0-3.84,0.284-5.689,0.853L307.2,125.298c-6.969,2.418-12.089,9.102-12.089,16.924v256
	c0,9.813,7.964,17.778,17.778,17.778c1.991,0,3.84-0.284,5.689-0.853l17.052-5.689C330.624,406.315,327.111,401.01,327.111,394.667z
	"/>
<g>
	<path fill="#A4AFC1" d="M150.492,51.397l10.055-10.055l20.11,20.11l-10.055,10.055L150.492,51.397z"/>
	<path fill="#A4AFC1" d="M147.968,119.277l20.11-20.11l10.055,10.055l-20.11,20.11L147.968,119.277z"/>
	<path fill="#A4AFC1" d="M205.81,61.473l20.11-20.11l10.055,10.055l-20.11,20.11L205.81,61.473z"/>
	<path fill="#A4AFC1" d="M421.262,458.667c-11.762,0-21.333-9.572-21.333-21.333S409.5,416,421.262,416s21.333,9.572,21.333,21.333
		S433.024,458.667,421.262,458.667z M421.262,430.222c-3.911,0-7.111,3.2-7.111,7.111s3.2,7.111,7.111,7.111s7.111-3.2,7.111-7.111
		S425.188,430.222,421.262,430.222z"/>
</g>
<path d="M96,224h135.111v21.333H96V224z"/>
<path d="M185.316,295.538l-15.076-15.076l45.796-45.796l-45.796-45.796l15.09-15.09l53.333,53.333c4.167,4.167,4.167,10.923,0,15.09
	L185.316,295.538z"/>
<path d="M312.889,426.667c-15.687,0-28.444-12.757-28.444-28.444v-256c0-12.146,7.737-23.012,19.257-26.994l85.461-28.501
	c19.285-5.888,37.504,8.334,37.504,27.051v256c0,12.132-7.723,22.983-19.243,26.994l-85.476,28.501
	C318.82,426.24,315.932,426.667,312.889,426.667z M398.222,106.667c-0.91,0-1.707,0.114-2.574,0.37l-85.077,28.373
	c-2.759,0.967-4.793,3.783-4.793,6.812v256c-0.014,4.836,5.106,8.092,9.685,6.741l85.077-28.373
	c2.759-0.967,4.793-3.783,4.793-6.812v-256C405.333,109.867,402.133,106.667,398.222,106.667z"/>
<path d="M220.444,145.778h-21.333v-21.333c0-21.575,17.536-39.111,39.111-39.111h160v21.333h-160
	c-9.799,0-17.778,7.979-17.778,17.778V145.778z"/>
<path d="M295.111,384h-56.889c-21.575,0-39.111-17.536-39.111-39.111v-21.333h21.333v21.333c0,9.799,7.979,17.778,17.778,17.778
	h56.889V384z"/>
</svg>
