<?xml version="1.0" encoding="utf-8"?>
<!-- Generator: Adobe Illustrator 17.0.0, SVG Export Plug-In . SVG Version: 6.00 Build 0)  -->
<!DOCTYPE svg PUBLIC "-//W3C//DTD SVG 1.1//EN" "http://www.w3.org/Graphics/SVG/1.1/DTD/svg11.dtd">
<svg version="1.1" id="Capa_1" xmlns="http://www.w3.org/2000/svg" xmlns:xlink="http://www.w3.org/1999/xlink" x="0px" y="0px"
	 width="515.91px" height="728.5px" viewBox="0 0 515.91 728.5" enable-background="new 0 0 515.91 728.5" xml:space="preserve">
<g>
	<path fill="#FFFFFF" d="M482.839,198.894H33.072C14.802,198.894,0,184.092,0,165.823s14.802-33.072,33.072-33.072h449.768
		c18.268,0,33.071,14.802,33.071,33.072S501.108,198.894,482.839,198.894z"/>
	<path fill="#FFFFFF" d="M297.641,397.322H33.072C14.802,397.322,0,382.518,0,364.25s14.802-33.072,33.072-33.072h264.569
		c18.268,0,33.072,14.802,33.072,33.072C330.712,382.519,315.909,397.322,297.641,397.322z"/>
</g>
<path fill="#F6E3D4" d="M482.839,397.322h-52.914c-18.268,0-33.072-14.802-33.072-33.072s14.802-33.072,33.072-33.072h52.914
	c18.268,0,33.071,14.802,33.071,33.072C515.91,382.519,501.108,397.322,482.839,397.322z"/>
<path fill="#FFFFFF" d="M482.839,595.748H33.072C14.802,595.748,0,580.945,0,562.677c0-18.268,14.802-33.072,33.072-33.072h449.768
	c18.268,0,33.071,14.802,33.071,33.072C515.91,580.945,501.108,595.748,482.839,595.748z"/>
</svg>
