<svg height="430pt" viewBox="-43 0 430 430.3532" width="430pt" xmlns="http://www.w3.org/2000/svg"><path d="m134.226562 418.816406c-35.273437-7.050781-67.664062-24.386718-93.097656-49.824218l-16.992187-16.992188h32c-25.925781-25.921875-42.46875-59.746094-47.015625-96.125l-.984375-7.875 40 8-7.710938-12.335938c-20.226562-32.363281-23.320312-72.582031-8.289062-107.664062l16 24v-18.742188c0-28.976562 11.511719-56.765624 32-77.257812l8 32 1.273437-2.976562c14.832032-34.597657 39.40625-64.140626 70.726563-85.023438l7.511719 5.007812c25.832031 17.222657 43.382812 44.371094 48.488281 74.992188l16-24c15.578125 20.773438 24 46.035156 24 72v8l10.6875-7.125c8.320312-5.546875 13.3125-14.878906 13.3125-24.875l7.855469 13.753906c15.617187 27.324219 21.320312 59.203125 16.144531 90.246094 10.246093 0 20.070312-4.066406 27.3125-11.3125l4.6875-4.6875-4 40.203125c-2.609375 26.039063-12.292969 50.867187-28 71.796875h24l-21.175781 42.402344c-7.128907 14.265625-17.132813 26.898437-29.382813 37.109375l-.640625.488281c-18.722656 15.636719-41.765625 25.195312-66.054688 27.410156l-24.480468 2.222656c-17.4375 1.582032-35.011719.632813-52.175782-2.816406zm0 0" fill="#389a6b"/><g fill="#58af7a"><path d="m176.136719 392h-23.015625c-22.5625-.003906-45.039063-2.769531-66.925782-8.238281l3.886719-15.519531c20.617188 5.152343 41.789063 7.757812 63.039063 7.757812h21.898437l5.671875-1.597656c31.5-8.96875 60.890625-24.144532 86.445313-44.632813l10 12.496094c-27.210938 21.8125-58.511719 37.972656-92.054688 47.519531l-6.753906 1.921875c-.710937.199219-1.449219.300781-2.191406.292969zm0 0"/><path d="m179.035156 424.679688-22.65625-54.511719c-29.585937-70.992188-38.570312-148.886719-25.921875-224.75l13.792969-82.738281 15.777344 2.640624-13.785156 82.730469c-12.15625 72.910157-3.523438 147.769531 24.902343 216l22.664063 54.511719zm0 0"/><path d="m144.136719 328h-1.351563c-31.976562 0-63.347656-8.691406-90.765625-25.144531l8.238281-13.710938c24.929688 14.953125 53.457032 22.855469 82.527344 22.855469h.800782l28.871093-4.125c33.707031-4.816406 64.9375-20.433594 89.015625-44.503906l13.023438-13.027344 11.3125 11.3125-13.023438 13.023438c-26.519531 26.53125-60.929687 43.734374-98.0625 49.035156l-29.433594 4.207031c-.382812.054687-.765624.082031-1.152343.078125zm0 0"/><path d="m174.839844 248h-38.703125c-.65625 0-1.308594-.078125-1.941407-.238281l-29.257812-7.320313c-24.300781-6.066406-44.734375-22.457031-55.929688-44.863281l14.320313-7.152344c9.101563 18.226563 25.722656 31.558594 45.488281 36.488281l28.304688 7.085938h37.71875c31.039062.003906 60.261718-14.609375 78.882812-39.4375l4-5.359375 12.800782 9.597656-4 5.359375c-21.644532 28.859375-55.609376 45.84375-91.683594 45.839844zm0 0"/><path d="m136.136719 168c-1.019531 0-2.027344-.195312-2.976563-.574219l-13.214844-5.289062c-18.957031-7.554688-35.164062-20.703125-46.464843-37.695313l13.3125-8.878906c9.507812 14.300781 23.144531 25.363281 39.097656 31.71875l10.816406 4.335938 33.503907-8.414063c17.632812-4.394531 34.375-11.800781 49.488281-21.890625l8.878906 13.3125c-16.640625 11.101562-35.070313 19.257812-54.480469 24.105469l-36 9c-.640625.171875-1.296875.261719-1.960937.269531zm0 0"/></g><path d="m.203125 248.992188.984375 7.863281c4.035156 31.917969 16.855469 62.085937 37.03125 87.144531h-14.082031c-3.234375 0-6.152344 1.949219-7.386719 4.941406-1.238281 2.988282-.554688 6.429688 1.730469 8.714844l16.992187 17c35.664063 35.667969 84.035156 55.703125 134.472656 55.695312 5.738282 0 11.480469-.253906 17.199219-.796874l24.488281-2.226563c26.175782-2.390625 50.984376-12.769531 71.066407-29.726563 13.109375-10.90625 23.8125-24.417968 31.421875-39.679687l21.214844-42.34375c1.246093-2.488281 1.105468-5.441406-.359376-7.800781-1.46875-2.363282-4.058593-3.792969-6.839843-3.777344h-8.984375c11.546875-19.195312 18.695312-40.710938 20.929687-63l4.054688-40.199219c.332031-3.355469-1.484375-6.558593-4.53125-8.007812-3.046875-1.445313-6.675781-.824219-9.066407 1.550781l-4.6875 4.6875c-3.464843 3.480469-7.714843 6.070312-12.394531 7.554688 2.648438-29.488282-3.796875-59.082032-18.464843-84.800782l-7.910157-13.785156c-1.804687-3.152344-5.503906-4.695312-9.011719-3.753906-3.507812.9375-5.945312 4.125-5.933593 7.753906.007812 6.644531-3.007813 12.929688-8.191407 17.082031-1.421874-25.285156-10.257812-49.589843-25.40625-69.878906-1.535156-2.113281-4.019531-3.3125-6.625-3.203125-2.582031.085938-4.96875 1.410156-6.402343 3.5625l-5.972657 8.957031c-8.476562-25.40625-25.15625-47.273437-47.417968-62.167969l-7.511719-5.007812c-2.6875-1.792969-6.191406-1.792969-8.878906 0-27.171875 18.089844-49.546875 42.507812-65.191407 71.152344l-2.609374-10.398438c-.699219-2.796875-2.851563-4.996094-5.625-5.765625-2.777344-.769531-5.753907.015625-7.792969 2.054688-20.261719 20.144531-32.40625 47.042969-34.117188 75.566406l-1.601562-2.351563c-1.628907-2.441406-4.464844-3.796874-7.386719-3.527343s-5.464844 2.117187-6.621094 4.816406c-15.511718 36.210937-12.984375 77.628906 6.824219 111.6875l-21.871094-4.417969c-2.515625-.5-5.117187.234375-6.996093 1.976563-1.882813 1.742187-2.8125005 4.28125-2.507813 6.824219zm46.398437 14.847656c3.128907.625 6.332032-.667969 8.144532-3.292969 1.816406-2.625 1.898437-6.078125.207031-8.785156l-7.710937-12.335938c-15.945313-25.527343-20.582032-56.527343-12.800782-85.601562l7.070313 10.609375c1.96875 2.902344 5.59375 4.1875 8.945312 3.171875 3.355469-1.019531 5.65625-4.097657 5.679688-7.605469v-18.742188c-.050781-21.769531 6.96875-42.96875 20-60.410156l4.273437 17.097656c.832032 3.328126 3.699219 5.757813 7.121094 6.03125 3.410156.246094 6.609375-1.671874 8-4.800781l1.269531-2.972656c13.488281-31.53125 35.445313-58.707031 63.441407-78.515625l3.007812 2c23.960938 16.03125 40.253906 41.230469 45.039062 69.65625.542969 3.238281 3.003907 5.8125 6.210938 6.503906 3.210938.6875 6.511719-.652344 8.332031-3.382812l9.304688-14.0625c10.417969 17.410156 15.945312 37.308594 16 57.597656v8c0 2.953125 1.625 5.664062 4.226562 7.054688 2.601563 1.394531 5.757813 1.242187 8.214844-.398438l10.6875-7.128906c4.472656-2.972656 8.261719-6.867188 11.113281-11.421875 13.675782 25.214843 18.558594 54.273437 13.871094 82.574219-.386719 2.320312.265625 4.695312 1.785156 6.488281 1.519532 1.796875 3.75 2.832031 6.101563 2.832031 7.722656.015625 15.324219-1.890625 22.121093-5.550781l-2.121093 20.953125c-2.449219 24.582031-11.578125 48.03125-26.398438 67.800781-1.820312 2.421875-2.109375 5.664063-.757812 8.375 1.355469 2.710937 4.128906 4.421875 7.15625 4.421875h11.058593l-15.394531 30.785156c-6.761719 13.511719-16.285156 25.453125-27.960937 35.046875-17.460938 14.617188-38.972656 23.550781-61.652344 25.601563l-19.25 1.75.585938-.246094-9.3125-22.335938 2.871093-.800781c33.542969-9.546875 64.84375-25.703125 92.054688-47.519531l-10-12.496094c-25.554688 20.484375-54.945313 35.652344-86.445313 44.617188l-4.671875 1.328125-4.875-11.730469c-5.097656-12.394531-9.554687-25.042969-13.359375-37.894531l16.921875-2.398438c37.132813-5.300781 71.542969-22.503906 98.0625-49.035156l13.023438-13.023437-11.3125-11.3125-13.023438 13.023437c-24.078125 24.074219-55.3125 39.691406-89.015625 44.503906l-19.023437 2.722657c-3.628907-13.914063-6.492188-28.015626-8.578125-42.242188-.964844-6.765625-1.6875-13.597656-2.300782-20.351562h32.300782c36.078125.007812 70.050781-16.972657 91.699218-45.832032l4-5.359375-12.800781-9.597656-4 5.359375c-18.621093 24.835938-47.855469 39.449219-78.898437 39.4375h-33.414063c-1.082031-21.890625-.328125-43.832031 2.257813-65.597656l30.398437-7.601563c19.410157-4.847656 37.835938-13 54.480469-24.105469l-8.878906-13.308593c-15.113282 10.0625-31.851563 17.441406-49.472656 21.816406l-24.152344 6.039063c.070312-.410157.109375-.800782.183594-1.226563l13.785156-82.726563-15.777344-2.640624-13.792969 82.769531c-.191406 1.160156-.328125 2.328125-.511719 3.488281l-4.054687-1.601562c-15.953125-6.355469-29.589844-17.417969-39.097656-31.71875l-13.3125 8.878906c11.300781 16.992187 27.507812 30.140625 46.464843 37.695312l7.761719 3.105469c-2.460937 21.171875-3.261719 42.503906-2.402343 63.800781l-16.488282-4.128906c-19.769531-4.9375-36.386718-18.277344-45.480468-36.511719l-14.316407 7.152344c11.191407 22.402344 31.621094 38.792969 55.917969 44.863281l21.390625 5.34375c.671875 8.296875 1.53125 16.574219 2.707031 24.800782 2.042969 13.863281 4.800782 27.617187 8.253906 41.199218-27.171874-.910156-53.667968-8.714844-77-22.671875l-8.238281 13.710938c27.0625 16.257812 57.992188 24.949219 89.558594 25.175781 4.148437 14.332031 9.078125 28.425781 14.769531 42.21875l2.398438 5.824219h-5.679688c-21.25-.003907-42.421875-2.609375-63.039062-7.761719l-3.890625 15.519531c21.902343 5.457031 44.386719 8.210938 66.953125 8.199219h12.351562l9.265625 22.242188c-13.0625.371093-26.121093-.722657-38.9375-3.265626-33.730469-6.710937-64.707031-23.292968-89-47.640624l-3.351562-3.335938h12.6875c3.234375 0 6.152343-1.949219 7.390625-4.9375 1.238281-2.988281.554687-6.429688-1.734375-8.71875-23.851563-23.929688-39.382813-54.890625-44.304688-88.320312zm0 0"/></svg>