<?xml version="1.0" encoding="iso-8859-1"?>
<!-- Generator: Adobe Illustrator 19.0.0, SVG Export Plug-In . SVG Version: 6.00 Build 0)  -->
<svg version="1.1" id="Capa_1" xmlns="http://www.w3.org/2000/svg" xmlns:xlink="http://www.w3.org/1999/xlink" x="0px" y="0px"
	 viewBox="0 0 512 512" style="enable-background:new 0 0 512 512;" xml:space="preserve">
<path style="fill:#7CC3AC;" d="M256,7.5C118.757,7.5,7.5,118.757,7.5,256S118.757,504.5,256,504.5S504.5,393.243,504.5,256
	S393.243,7.5,256,7.5z M256,411.313c-85.777,0-155.313-69.536-155.313-155.313S170.223,100.687,256,100.687
	S411.313,170.223,411.313,256S341.777,411.313,256,411.313z"/>
<path style="fill:#61AE9F;" d="M429.124,256c0-95.614-77.51-173.124-173.124-173.124S82.876,160.386,82.876,256
	S160.386,429.124,256,429.124S429.124,351.614,429.124,256z M100.688,256c0-85.777,69.536-155.313,155.313-155.313
	S411.313,170.223,411.313,256S341.777,411.313,256,411.313S100.688,341.777,100.688,256z M504.5,256
	c0,137.243-111.257,248.5-248.5,248.5c-3.579,0-7.136-0.093-10.678-0.243C377.61,498.662,483.145,389.664,483.145,256
	S377.61,13.338,245.323,7.743C248.864,7.593,252.421,7.5,256,7.5C393.243,7.5,504.5,118.757,504.5,256z"/>
<g>
	<path style="fill:#FF733D;" d="M317.214,216.834l-101.836,98.924c-2.843,2.843-6.569,4.265-10.296,4.265
		c-3.726,0-7.453-1.421-10.296-4.265c-5.686-5.686-5.686-14.905,0-20.591l101.836-98.924c5.686-5.687,14.906-5.687,20.591,0
		C322.9,201.929,322.9,211.148,317.214,216.834z M217.172,226.879c10.705,0,19.414-8.709,19.414-19.414s-8.709-19.414-19.414-19.414
		s-19.414,8.709-19.414,19.414S206.467,226.879,217.172,226.879z M294.828,285.121c-10.705,0-19.414,8.709-19.414,19.414
		s8.709,19.414,19.414,19.414c10.705,0,19.414-8.709,19.414-19.414C314.242,293.83,305.533,285.121,294.828,285.121z"/>
	<path style="fill:#FF733D;" d="M504.5,256H396.663c-2.621,0-4.755-2.083-4.844-4.703c-1.127-33.141-14.12-63.271-34.865-86.276
		c-23.897-26.5-58.079-43.543-96.255-44.84c-2.618-0.089-4.698-2.224-4.698-4.843V7.5C393.243,7.5,504.5,118.757,504.5,256z"/>
</g>
<path style="fill:#FF904E;" d="M483.145,256h-71.832c0-85.777-69.536-155.313-155.313-155.313V8.423
	C383.243,19.256,483.145,125.953,483.145,256z M504.439,251.146c0.031,1.615,0.061,3.231,0.061,4.854l0,0
	C504.5,254.377,504.47,252.762,504.439,251.146L504.439,251.146z"/>
<path d="M510.492,283.937c-6.768,62.338-36.239,119.915-82.987,162.124C380.412,488.582,319.504,512,256,512
	c-68.38,0-132.667-26.629-181.02-74.98C26.629,388.667,0,324.38,0,256c0-63.247,23.251-123.971,65.472-170.986
	C107.367,38.362,164.59,8.763,226.601,1.671c4.117-0.47,7.833,2.484,8.304,6.599c0.47,4.115-2.484,7.833-6.6,8.304
	C106.701,30.482,15,133.413,15,256c0,132.888,108.112,241,241,241c123.297,0,226.293-92.293,239.58-214.683
	c0.447-4.118,4.145-7.094,8.266-6.646C507.964,276.118,510.939,279.818,510.492,283.937z M244.086,207.465
	c0,14.84-12.074,26.914-26.914,26.914s-26.914-12.074-26.914-26.914s12.074-26.914,26.914-26.914S244.086,192.625,244.086,207.465z
	 M229.086,207.465c0-6.569-5.345-11.914-11.914-11.914s-11.914,5.345-11.914,11.914s5.345,11.914,11.914,11.914
	S229.086,214.034,229.086,207.465z M248.5,115.338V7.5c0-4.142,3.358-7.5,7.5-7.5c68.38,0,132.668,26.629,181.02,74.98
	C485.371,123.333,512,187.62,512,256c0,4.142-3.357,7.5-7.5,7.5H396.662c-6.692,0-12.112-5.249-12.34-11.948
	c-1.024-30.143-12.723-59.089-32.938-81.507c-23.563-26.129-55.859-41.176-90.94-42.368C253.746,127.45,248.5,122.03,248.5,115.338z
	 M263.5,112.794c38.198,1.958,73.281,18.66,99.022,47.205c22.012,24.408,34.981,55.748,36.683,88.501h97.68
	C492.989,121.552,390.447,19.011,263.5,15.115V112.794z M247.527,274.071c-2.971,2.886-3.04,7.635-0.154,10.605
	c1.471,1.514,3.424,2.274,5.38,2.274c1.883,0,3.768-0.705,5.225-2.12l64.461-62.617c0.026-0.025,0.052-0.051,0.078-0.077
	c4.166-4.167,6.461-9.707,6.461-15.599s-2.295-11.432-6.461-15.598c-4.166-4.167-9.706-6.462-15.6-6.462
	c-5.872,0-11.394,2.279-15.556,6.418l-27.25,26.471c-2.972,2.886-3.04,7.635-0.154,10.606c2.887,2.971,7.636,3.041,10.605,0.154
	l27.284-26.504c0.026-0.025,0.053-0.051,0.078-0.077c1.333-1.334,3.106-2.068,4.992-2.068s3.659,0.734,4.993,2.069
	c1.333,1.333,2.067,3.106,2.067,4.992c0,1.872-0.724,3.632-2.038,4.962L247.527,274.071z M294.828,277.621
	c14.841,0,26.914,12.074,26.914,26.914s-12.073,26.914-26.914,26.914s-26.914-12.074-26.914-26.914S279.987,277.621,294.828,277.621
	z M294.828,292.621c-6.569,0-11.914,5.345-11.914,11.914s5.345,11.914,11.914,11.914s11.914-5.345,11.914-11.914
	S301.397,292.621,294.828,292.621z M229.074,95.405c-37.571,6.255-71.97,25.727-96.858,54.83
	C107.048,179.664,93.188,217.225,93.188,256c0,36.425,11.76,70.865,34.007,99.597c1.478,1.909,3.695,2.909,5.936,2.909
	c1.604,0,3.22-0.513,4.586-1.57c3.275-2.536,3.874-7.247,1.338-10.522c-20.194-26.079-30.868-57.344-30.868-90.414
	c0-72.583,51.876-133.899,123.35-145.798c4.086-0.681,6.847-4.544,6.167-8.63C237.023,97.485,233.156,94.724,229.074,95.405z
	 M189.483,289.863c-8.601,8.601-8.601,22.596,0,31.197c4.166,4.167,9.706,6.462,15.6,6.462c5.872,0,11.394-2.279,15.555-6.417
	l18.471-17.942c2.971-2.886,3.04-7.635,0.154-10.605c-2.886-2.972-7.634-3.04-10.606-0.154l-18.504,17.975
	c-0.026,0.026-0.052,0.051-0.078,0.077c-1.333,1.333-3.106,2.067-4.992,2.067s-3.659-0.734-4.992-2.068
	c-2.742-2.742-2.753-7.197-0.033-9.952l58.094-56.434c2.972-2.886,3.04-7.634,0.154-10.605c-2.887-2.971-7.635-3.04-10.606-0.153
	l-58.14,56.477C189.534,289.812,189.508,289.837,189.483,289.863z M146.958,366.85c-2.76,3.089-2.493,7.83,0.595,10.59
	c29.856,26.68,68.371,41.373,108.447,41.373c78.371,0,145.679-55.829,160.041-132.75c0.761-4.072-1.924-7.989-5.995-8.749
	c-4.074-0.759-7.989,1.924-8.749,5.996C388.258,353.134,327.152,403.813,256,403.813c-36.384,0-71.349-13.338-98.452-37.557
	C154.458,363.495,149.717,363.762,146.958,366.85z"/>
<g>
</g>
<g>
</g>
<g>
</g>
<g>
</g>
<g>
</g>
<g>
</g>
<g>
</g>
<g>
</g>
<g>
</g>
<g>
</g>
<g>
</g>
<g>
</g>
<g>
</g>
<g>
</g>
<g>
</g>
</svg>
